<?xml version="1.0" standalone="no"?>
<!DOCTYPE svg PUBLIC "-//W3C//DTD SVG 20010904//EN"
 "http://www.w3.org/TR/2001/REC-SVG-20010904/DTD/svg10.dtd">
<svg version="1.0" xmlns="http://www.w3.org/2000/svg"
 width="474.000000pt" height="329.000000pt" viewBox="0 0 474.000000 329.000000"
 preserveAspectRatio="xMidYMid meet">

<g transform="translate(0.000000,329.000000) scale(0.100000,-0.100000)"
fill="#000000" stroke="none">
<path d="M0 1645 l0 -1645 2370 0 2370 0 0 1645 0 1645 -2370 0 -2370 0 0
-1645z m314 1573 c-6 -10 -4 -10 7 0 8 8 45 12 104 12 l90 0 -36 -33 c-20 -18
-81 -73 -135 -122 -54 -50 -100 -98 -102 -107 -2 -13 -13 -18 -34 -18 -28 0
-30 -2 -25 -28 4 -21 1 -31 -14 -40 -10 -7 -19 -18 -19 -25 0 -6 -18 -31 -40
-55 l-40 -42 0 235 0 235 126 0 c97 0 124 -3 118 -12z m492 3 c-4 -5 0 -12 6
-15 7 -3 4 -5 -6 -3 -24 3 -34 27 -11 27 9 0 14 -4 11 -9z m198 -3 c5 -10 7
-10 12 0 3 6 18 12 33 12 27 0 28 -1 23 -56 l-5 -55 27 7 c16 4 26 2 26 -5 0
-6 -5 -11 -10 -11 -6 0 -20 -9 -32 -19 -17 -17 -23 -18 -34 -6 -8 7 -14 20
-14 28 0 19 -29 31 -35 14 -2 -6 -9 -23 -14 -37 -5 -14 -22 -32 -37 -40 -16
-8 -37 -21 -46 -29 -16 -12 -18 -12 -18 2 0 10 5 17 11 17 6 0 8 9 4 22 -6 16
-4 20 7 16 21 -8 43 12 55 52 6 19 11 27 12 18 2 -31 21 -19 21 12 0 30 -21
42 -35 20 -4 -6 -16 -8 -27 -4 -14 4 -18 2 -14 -5 4 -6 1 -11 -8 -11 -14 0
-46 -52 -46 -76 0 -7 -5 -14 -10 -16 -6 -2 -8 -21 -4 -50 5 -32 10 -45 20 -41
7 3 20 -9 30 -29 9 -18 18 -35 20 -37 2 -2 23 6 47 18 38 19 44 25 41 49 -2
15 -1 19 2 10 3 -11 15 -16 35 -16 27 1 34 8 30 33 -1 6 12 -5 29 -24 19 -22
27 -38 21 -44 -11 -11 -34 0 -26 13 9 14 -8 18 -33 9 -18 -7 -22 -14 -17 -29
4 -11 2 -20 -4 -20 -6 0 -11 -8 -11 -17 0 -15 2 -16 10 -3 9 14 15 7 11 -14
-1 -5 7 -15 19 -23 20 -14 29 -73 11 -73 -5 0 -19 -16 -32 -35 -13 -19 -32
-35 -41 -35 -20 0 -24 -16 -6 -22 8 -3 2 -12 -14 -22 -16 -10 -25 -23 -21 -32
7 -19 23 -18 23 1 0 14 3 13 24 -2 31 -24 23 -39 -25 -47 -24 -4 -37 -11 -34
-17 9 -14 -14 -39 -30 -33 -8 3 -11 12 -8 20 7 19 0 18 -27 -6 -20 -17 -25
-18 -43 -5 -27 19 -37 19 -37 1 0 -14 -17 -25 -33 -22 -11 1 -37 -46 -30 -56
7 -13 -7 -48 -21 -48 -7 0 -19 16 -26 35 -18 46 -33 58 -72 57 -37 -1 -69 14
-67 31 1 7 1 33 0 59 -1 40 -4 45 -20 41 -18 -5 -41 -42 -41 -66 0 -7 9 -18
20 -25 27 -17 25 -32 -5 -32 -17 0 -23 -4 -19 -15 4 -10 15 -13 40 -9 25 4 36
1 40 -10 8 -22 -15 -48 -37 -41 -9 3 -21 0 -25 -6 -5 -9 -10 -8 -18 3 -20 26
-41 26 -72 -1 -31 -27 -57 -74 -47 -85 10 -9 73 -7 73 3 0 5 11 16 25 25 23
15 25 15 49 -9 14 -14 29 -25 34 -25 6 0 12 -17 14 -37 3 -21 8 -47 13 -58 6
-14 1 -12 -17 8 -24 27 -38 27 -38 0 0 -7 11 -23 25 -35 20 -17 25 -31 25 -70
0 -29 -4 -48 -11 -48 -8 0 -8 -4 0 -14 10 -12 8 -19 -8 -35 -12 -12 -21 -28
-21 -36 0 -8 -4 -15 -10 -15 -5 0 -7 -6 -4 -14 3 -7 -2 -21 -11 -30 -10 -9
-12 -16 -5 -16 6 0 2 -12 -10 -27 -15 -19 -17 -28 -8 -34 8 -5 9 -11 1 -21
-15 -19 -53 -130 -53 -156 0 -12 -5 -22 -11 -22 -5 0 -8 -4 -5 -8 7 -12 -27
-39 -42 -34 -17 5 -15 -29 4 -56 23 -34 15 -67 -17 -67 -34 0 -69 -31 -69 -60
0 -40 -32 -122 -60 -155 -31 -36 -55 -36 -69 2 -6 16 -21 26 -52 33 l-44 11
-3 393 c-1 282 1 398 9 407 8 10 8 14 0 14 -7 0 -11 36 -11 114 0 109 1 115
21 118 18 3 21 10 23 60 1 37 8 63 19 76 9 10 17 32 17 48 l0 29 -18 -28 c-21
-31 -37 -26 -19 7 15 26 28 36 39 30 5 -3 11 9 14 26 4 17 11 33 15 36 5 3 9
13 9 23 0 9 12 28 26 40 18 16 24 29 20 45 -5 20 -2 22 38 22 46 0 122 42 134
74 8 20 33 39 53 40 9 0 19 7 23 15 3 8 14 15 25 15 11 0 23 5 26 10 8 13 51
13 76 0 15 -8 19 -21 19 -57 0 -34 3 -44 11 -36 6 6 27 9 47 6 33 -4 40 0 64
31 25 31 27 38 16 63 -6 15 -10 31 -10 36 1 4 -3 27 -9 52 -8 32 -8 53 1 79
10 32 13 34 36 26 34 -13 32 -14 48 25 l15 35 75 0 c50 0 76 -4 80 -12z m186
-3 c0 -8 9 -20 20 -27 25 -16 27 -40 3 -31 -10 3 -33 21 -51 40 l-33 33 31 0
c20 0 30 -5 30 -15z m1944 5 c-7 -7 -19 -7 -35 -1 -23 9 -22 10 11 10 23 1 31
-2 24 -9z m103 -4 c-3 -8 0 -17 8 -20 8 -3 15 0 17 6 2 5 10 2 18 -8 13 -16
13 -17 -2 -11 -11 4 -22 -2 -33 -19 -17 -26 -41 -23 -30 4 3 8 -4 25 -16 39
l-22 23 32 0 c25 0 32 -4 28 -14z m179 -3 c3 -10 5 -22 4 -26 -1 -12 28 -38
63 -56 24 -12 42 -14 72 -8 96 19 149 11 161 -26 4 -12 14 -18 32 -16 42 2 92
-12 92 -27 0 -8 -5 -14 -11 -14 -6 0 -9 -10 -6 -22 3 -13 2 -32 -3 -43 -9 -22
-13 -16 -28 44 -4 19 -14 37 -21 39 -10 3 -12 -2 -8 -19 6 -26 -6 -47 -40 -66
-19 -11 -22 -10 -25 10 -2 12 -11 23 -21 25 -15 3 -18 0 -12 -17 4 -12 2 -21
-4 -21 -6 0 -11 5 -11 11 0 6 -8 8 -19 4 -26 -8 -63 -16 -79 -17 -7 -1 -11
-12 -10 -27 2 -15 -2 -25 -8 -24 -13 3 -7 -34 7 -43 13 -7 11 -44 -2 -44 -5 0
-7 -4 -4 -10 9 -14 -8 -13 -23 2 -9 9 -13 8 -17 -4 -7 -19 -54 -12 -62 9 -8
21 -53 36 -69 22 -7 -6 -28 -9 -46 -7 -31 3 -33 1 -36 -29 -3 -26 0 -32 12
-27 9 3 16 1 16 -5 0 -6 -7 -11 -15 -11 -11 0 -14 -12 -13 -53 1 -29 -1 -57
-5 -63 -14 -23 0 -83 26 -106 32 -29 45 -68 23 -68 -9 0 -16 -6 -16 -14 0 -9
7 -12 20 -9 28 7 26 -23 -2 -38 -13 -6 -30 -21 -40 -32 -15 -20 -15 -22 0 -34
15 -11 15 -14 2 -22 -8 -5 -19 -7 -25 -3 -5 3 -4 -2 4 -11 13 -16 12 -18 -6
-16 -14 1 -23 -43 -12 -57 6 -8 8 -14 4 -14 -5 0 0 -9 10 -20 10 -11 24 -20
32 -20 8 0 13 -12 13 -31 0 -17 -4 -28 -10 -24 -5 3 -10 1 -10 -5 0 -7 9 -14
20 -17 11 -3 20 -14 20 -24 0 -11 8 -26 19 -35 11 -10 16 -24 14 -35 -6 -23
-23 -15 -23 12 0 10 -4 19 -10 19 -5 0 -10 -20 -10 -45 0 -49 6 -55 26 -27 11
14 13 14 14 2 0 -8 9 -26 20 -40 19 -25 12 -50 -15 -50 -7 0 -18 -7 -25 -15
-9 -10 -9 -15 -1 -15 6 0 11 5 11 10 0 6 7 10 16 10 10 0 14 -6 10 -15 -3 -9
0 -15 9 -15 22 0 18 -28 -5 -42 -27 -17 -25 -38 4 -38 21 0 24 -5 23 -27 -2
-21 4 -28 27 -34 38 -10 66 -42 66 -74 0 -21 -5 -25 -30 -25 -35 0 -38 10 -10
28 22 13 17 39 -8 44 -21 4 -52 -26 -52 -51 0 -11 -5 -23 -10 -26 -6 -4 -8
-11 -4 -16 3 -5 10 -7 15 -4 5 4 9 -1 9 -9 0 -22 -17 -29 -54 -22 -23 4 -32
11 -32 26 0 13 7 20 19 20 10 0 15 -4 12 -10 -3 -5 -1 -10 5 -10 13 0 2 52
-14 62 -22 15 -62 9 -60 -8 1 -6 -5 -11 -12 -11 -8 0 -14 5 -14 11 0 20 -51
55 -78 53 -22 -2 -28 -8 -32 -38 -4 -19 -9 -39 -13 -45 -7 -13 -116 -6 -134 8
-8 6 -18 3 -32 -11 -11 -11 -16 -23 -11 -26 6 -4 13 1 17 11 6 16 7 15 20 -2
19 -27 16 -35 -12 -28 -19 5 -25 2 -25 -11 0 -9 -4 -13 -10 -10 -5 3 -10 15
-10 26 0 12 -7 19 -20 19 -11 0 -20 -4 -20 -10 0 -18 -18 -10 -23 10 -4 17 -2
20 14 15 25 -8 24 7 -2 31 -16 15 -22 16 -28 5 -5 -8 -13 -11 -19 -7 -6 3 -12
2 -14 -2 -3 -10 -68 -25 -68 -16 0 3 14 10 30 15 40 14 39 33 -1 24 -38 -9
-68 19 -64 57 2 19 -2 28 -17 31 -11 3 -17 10 -14 15 3 6 -1 13 -10 16 -27 10
-38 6 -20 -7 16 -12 16 -15 4 -28 -8 -8 -13 -20 -11 -26 3 -7 -10 -22 -29 -33
-28 -17 -30 -20 -12 -20 12 0 24 -7 28 -15 3 -10 -1 -15 -11 -15 -13 0 -14 -3
-5 -12 18 -18 15 -26 -10 -30 -14 -2 -22 -11 -23 -25 -2 -25 5 -29 22 -12 9 9
11 8 10 -2 -7 -42 -60 -51 -65 -11 -2 12 -8 22 -13 22 -5 0 -9 6 -9 13 0 19
-61 50 -74 37 -7 -7 -6 -10 2 -10 7 0 13 -12 13 -27 1 -17 3 -21 6 -10 5 19
12 21 32 8 7 -5 10 -14 7 -20 -4 -6 -2 -11 3 -11 6 0 11 -7 11 -16 0 -9 -5
-14 -12 -12 -15 5 -53 -32 -42 -41 5 -3 10 -25 11 -48 2 -30 -2 -43 -14 -47
-10 -4 -20 -1 -25 8 -15 28 -63 55 -79 46 -11 -8 -10 -12 9 -26 17 -12 21 -19
13 -27 -8 -8 -14 -8 -23 1 -18 18 -30 15 -24 -6 4 -12 -3 -27 -19 -42 -13 -12
-22 -27 -18 -33 3 -5 -1 -13 -8 -18 -11 -7 -9 -10 9 -15 12 -4 22 -10 22 -15
0 -12 -27 -11 -35 1 -10 16 -25 11 -18 -6 4 -12 2 -15 -8 -10 -8 3 -22 9 -31
12 -10 4 -18 11 -18 16 0 5 -5 6 -10 3 -6 -3 -14 4 -19 16 l-8 23 -27 -28
c-14 -16 -26 -24 -26 -17 0 6 -8 11 -17 11 -11 0 -14 3 -7 8 6 4 14 26 17 50
5 40 4 42 -16 36 -12 -4 -23 -7 -24 -8 -6 -5 -4 -56 4 -76 6 -14 8 -27 5 -30
-2 -3 -7 1 -9 8 -3 7 -18 19 -34 27 -16 9 -28 21 -26 27 1 7 -7 14 -18 16 -32
7 -42 20 -39 50 2 15 1 21 -2 15 -3 -7 -12 -13 -20 -13 -12 0 -12 3 -2 20 7
11 18 18 24 16 7 -3 21 4 31 14 14 12 49 21 114 29 125 16 124 15 124 26 0 6
-18 9 -40 9 -22 -1 -43 3 -46 8 -3 5 -18 2 -33 -6 -17 -9 -43 -12 -68 -8 -24
3 -43 1 -47 -6 -3 -6 -36 -12 -71 -14 -36 -2 -70 -7 -75 -13 -14 -14 -13 -64
1 -58 7 2 15 0 19 -6 3 -7 -3 -11 -15 -11 -16 0 -20 -4 -15 -19 6 -21 -24 -39
-35 -21 -13 21 -30 -16 -34 -74 -2 -32 -7 -60 -10 -63 -3 -3 5 -14 17 -24 l22
-18 -23 -1 c-13 0 -32 5 -43 10 -15 9 -21 7 -25 -5 -7 -18 -30 -20 -37 -2 -3
6 -6 2 -6 -9 -1 -12 -8 -24 -16 -28 -8 -3 -15 -11 -15 -19 0 -20 40 -18 70 3
16 11 31 15 36 10 5 -5 25 -6 45 -1 26 6 41 4 55 -7 13 -10 15 -16 7 -19 -16
-6 -17 -43 -2 -43 6 0 3 -7 -5 -16 -9 -8 -16 -22 -16 -30 0 -8 -10 -14 -25
-14 -15 0 -24 -5 -23 -12 2 -7 -6 -13 -17 -14 -35 -2 -38 -4 -26 -18 10 -12 8
-17 -9 -26 -17 -9 -19 -14 -9 -26 8 -10 15 -12 22 -5 7 7 15 7 24 0 17 -15 51
-3 35 13 -8 8 -4 15 16 25 17 9 28 11 30 4 2 -6 9 -11 16 -11 6 0 17 -14 24
-32 6 -17 15 -29 19 -25 4 4 1 13 -5 19 -23 23 -14 38 21 31 29 -6 31 -5 18
11 -8 9 -11 20 -7 23 4 4 11 1 15 -6 5 -8 11 -9 14 -4 4 6 0 19 -8 29 -20 26
-18 34 6 34 15 0 19 -5 15 -15 -3 -8 0 -15 7 -15 7 0 17 -8 24 -19 6 -10 28
-22 47 -25 20 -4 36 -13 36 -20 0 -8 10 -12 25 -11 14 2 28 -2 32 -7 4 -7 1
-8 -6 -3 -9 5 -12 2 -9 -11 2 -12 12 -19 27 -19 12 0 30 -9 38 -20 15 -19 15
-19 9 7 -8 36 15 38 34 3 12 -22 12 -28 -4 -43 -15 -15 -18 -15 -26 -2 -8 13
-10 12 -10 -2 0 -12 8 -18 21 -18 11 0 29 -5 40 -10 22 -13 25 -7 5 13 -12 11
-11 15 6 26 18 11 20 11 15 -2 -4 -10 1 -18 14 -22 23 -7 25 -22 4 -27 -10 -2
-5 -9 15 -20 29 -16 30 -16 30 2 0 25 12 25 35 0 13 -15 22 -17 36 -10 26 15
29 13 29 -21 0 -25 -3 -29 -13 -20 -22 17 -29 0 -11 -26 16 -26 13 -34 -29
-77 -12 -12 -18 -13 -16 -5 3 26 -1 39 -12 39 -6 0 -9 -9 -6 -20 7 -27 -16
-42 -59 -38 -21 2 -39 -2 -41 -8 -5 -16 27 -26 42 -14 18 15 31 -6 16 -24 -9
-10 -7 -15 9 -19 12 -3 20 -13 20 -25 0 -12 5 -24 10 -27 6 -3 10 3 10 14 0
19 15 26 43 22 4 0 7 5 7 12 0 18 48 59 55 47 3 -5 -1 -12 -9 -17 -8 -4 -16
-21 -18 -38 -3 -26 -7 -30 -29 -27 -23 3 -25 0 -26 -35 -1 -21 3 -43 8 -50 7
-7 6 -13 0 -17 -5 -4 -12 -2 -16 4 -3 5 -17 10 -29 10 -19 0 -28 11 -44 51
-23 53 -42 58 -42 9 0 -17 -7 -33 -17 -39 -16 -9 -15 -10 5 -11 32 0 36 -20
12 -74 -23 -55 -24 -60 -8 -50 8 5 9 0 3 -17 -4 -13 -7 -34 -7 -46 0 -13 -4
-20 -10 -17 -5 3 -16 0 -24 -7 -11 -9 -18 -8 -35 7 -19 17 -20 17 -26 -4 -3
-12 -13 -21 -22 -20 -31 2 -76 -4 -63 -9 14 -5 17 -43 3 -43 -19 0 -33 30 -26
60 6 27 4 30 -20 30 -14 0 -24 4 -21 9 3 4 -6 6 -19 3 -20 -3 -27 1 -35 22
-12 32 -28 34 -32 4 -2 -18 -12 -24 -43 -29 -22 -4 -44 -3 -50 1 -10 8 -100
-29 -91 -38 3 -3 13 1 21 8 13 11 19 10 36 -8 21 -24 36 -27 58 -13 21 13 41
2 41 -23 0 -17 -6 -22 -27 -21 -21 0 -28 -5 -28 -19 0 -25 -12 -27 -226 -32
l-175 -5 -27 27 c-15 15 -27 36 -27 46 0 11 -9 22 -20 25 -21 6 -25 15 -13 27
4 4 9 29 11 57 4 55 -13 109 -34 109 -37 0 -52 103 -23 156 10 19 10 27 1 36
-16 16 -15 23 5 44 9 9 17 32 17 50 0 19 3 34 6 34 3 0 16 18 30 40 14 22 28
40 32 40 5 0 8 5 8 10 0 6 -10 8 -23 5 -22 -6 -23 -4 -24 55 -1 56 -11 83 -31
86 -45 7 -76 20 -85 36 -17 27 -80 59 -97 48 -11 -7 -12 -14 -2 -35 7 -15 10
-30 7 -35 -10 -17 -34 1 -40 30 -5 24 -11 28 -33 25 -15 -2 -36 -4 -47 -4 -31
-2 3 -21 37 -21 19 0 26 -4 22 -14 -3 -7 2 -16 10 -19 22 -9 20 -39 -4 -70
-11 -14 -20 -30 -20 -37 0 -6 -6 -10 -12 -7 -17 6 -48 -11 -48 -26 0 -8 3 -7
9 2 5 8 16 11 25 8 17 -7 22 -42 7 -52 -11 -6 -61 15 -61 27 0 4 -3 8 -8 8 -4
0 -6 -20 -4 -44 3 -36 8 -45 25 -48 11 -2 22 -9 25 -17 3 -8 0 -11 -7 -7 -7 5
-11 -2 -11 -20 0 -22 -4 -25 -21 -21 -18 5 -20 1 -19 -26 3 -54 2 -56 -33 -55
-42 1 -57 -7 -57 -33 0 -23 15 -24 54 -4 25 13 33 13 75 -1 25 -8 54 -16 63
-17 20 -1 25 -17 5 -17 -6 0 -17 -16 -23 -36 -9 -29 -9 -37 2 -41 8 -3 14 -11
14 -19 0 -8 9 -14 19 -14 11 0 22 -6 24 -12 3 -7 6 -3 6 10 1 17 7 22 31 24
17 0 35 1 42 2 6 1 13 -5 16 -11 2 -7 -3 -13 -12 -13 -12 0 -16 -10 -16 -39 0
-22 -6 -44 -15 -51 -8 -7 -15 -19 -15 -26 0 -12 -19 -19 -42 -15 -5 0 -8 -4
-8 -9 0 -6 -7 -10 -15 -10 -32 0 -13 -19 23 -22 39 -3 55 -33 17 -33 -13 0
-21 -8 -23 -22 -2 -13 -11 -24 -20 -24 -15 -1 -15 -2 1 -6 9 -2 15 -9 12 -14
-4 -5 -18 -6 -32 -3 -18 5 -24 3 -19 -4 10 -17 -787 -16 -817 0 -16 8 -22 8
-25 -1 -2 -7 -31 -11 -78 -11 l-74 0 0 470 c0 445 1 470 18 462 9 -5 22 -8 28
-5 6 2 17 -3 24 -12 7 -8 19 -15 27 -15 7 0 16 -7 20 -16 3 -8 12 -13 19 -10
7 3 16 1 19 -4 3 -5 -5 -10 -17 -12 -32 -5 -34 -26 -1 -30 26 -3 28 -6 31 -55
3 -45 6 -53 22 -53 16 0 18 5 14 28 -5 23 -1 30 20 40 14 6 26 18 26 26 0 13
20 26 41 26 16 0 10 -31 -11 -61 l-21 -28 27 -7 c15 -4 42 -1 61 5 29 11 37
10 52 -3 16 -15 19 -14 40 8 12 13 21 29 19 37 -2 7 7 18 18 23 12 5 27 25 33
43 7 18 19 33 27 33 8 0 14 6 14 14 0 7 7 19 15 26 9 7 15 29 15 50 0 39 39
100 63 100 7 0 19 14 27 30 31 62 94 165 102 168 4 2 8 8 8 13 0 11 88 128
129 172 18 19 25 37 23 56 -2 16 1 32 7 36 6 3 11 17 11 30 0 30 82 74 104 56
17 -14 36 25 36 74 0 38 6 41 33 21 22 -17 22 -19 -8 -66 l-25 -40 28 12 c15
7 50 27 79 45 68 42 250 116 269 109 8 -3 23 3 34 14 11 11 29 20 40 20 30 0
35 25 11 63 -12 19 -21 50 -21 70 0 27 -5 37 -21 42 -14 5 -18 12 -13 23 9 24
11 80 3 94 -4 7 -31 12 -59 12 l-51 0 7 30 c3 17 10 32 15 34 5 2 6 15 3 28
-6 25 22 94 38 94 5 0 8 6 8 13 0 7 10 19 23 26 40 26 107 61 115 60 34 -5 52
3 49 22 -1 12 5 25 13 29 103 55 144 63 107 23 -8 -10 -20 -30 -26 -45 -8 -22
-7 -27 10 -31 11 -3 25 -19 32 -36 6 -17 15 -32 19 -32 4 -1 14 -2 21 -3 6 -1
11 -8 9 -16 -3 -12 14 -30 31 -30 12 0 8 55 -5 68 -7 7 -8 12 -4 12 5 0 3 6
-3 14 -6 7 -9 21 -5 30 6 16 20 20 63 16 13 -1 27 3 31 10 4 6 22 19 41 28 21
10 35 26 37 40 4 24 30 30 50 10 16 -16 21 -9 31 46 5 27 16 55 24 63 13 14
16 13 25 -3 5 -11 9 -32 8 -48 -1 -15 4 -30 10 -33 7 -3 10 -11 7 -19 -3 -8 0
-14 6 -14 6 0 11 -7 11 -15 0 -8 7 -15 15 -15 18 0 20 -16 2 -23 -27 -10 -7
-82 26 -93 18 -6 18 -7 4 -16 -19 -10 -23 -38 -6 -38 6 0 8 -8 4 -19 -3 -11
-1 -22 5 -26 5 -3 10 -19 10 -35 0 -16 4 -32 10 -35 16 -10 12 -29 -11 -54
-17 -18 -18 -25 -8 -37 8 -10 9 -18 3 -22 -16 -11 -24 -41 -13 -48 7 -4 7 -10
0 -17 -6 -6 -11 -21 -11 -33 0 -18 -7 -22 -42 -27 -23 -3 -47 -2 -53 3 -15 12
-58 -17 -49 -32 5 -7 1 -9 -9 -5 -14 5 -16 2 -12 -16 4 -18 -2 -25 -35 -40
-22 -11 -47 -16 -56 -13 -8 3 -23 -2 -34 -12 -82 -74 -145 -110 -195 -111 -11
-1 -33 -13 -50 -27 -29 -24 -29 -25 -5 -18 14 4 28 12 32 18 5 7 8 7 8 1 0
-17 -22 -35 -44 -35 -12 0 -31 -11 -44 -24 -14 -16 -29 -22 -42 -19 -11 3 -20
0 -20 -6 0 -6 5 -11 10 -11 6 0 10 -11 10 -24 0 -14 5 -28 10 -31 18 -11 11
-61 -15 -110 l-26 -48 23 7 c13 3 32 6 43 6 32 0 48 15 41 38 -5 14 -13 19
-29 15 -21 -4 -21 -4 -4 10 10 8 16 21 15 28 -2 8 4 13 14 11 9 -1 19 2 23 8
3 5 -1 10 -9 10 -9 0 -16 5 -16 10 0 8 41 14 87 13 7 -1 11 3 8 7 -3 5 -1 12
5 15 8 5 7 11 -1 21 -9 11 -6 16 17 25 16 6 41 13 57 16 15 3 27 10 27 16 0
12 -64 0 -68 -13 -2 -6 -10 -10 -17 -10 -23 0 -89 -34 -103 -52 -19 -26 -34
-22 -30 8 3 26 16 36 99 74 30 13 60 19 83 17 37 -4 72 15 61 33 -3 5 -1 11 5
15 5 3 10 1 10 -5 0 -7 7 -9 16 -6 8 3 23 2 32 -3 21 -10 70 9 65 27 -3 6 0
12 6 12 6 0 11 -5 11 -11 0 -6 14 -1 30 11 17 12 38 19 46 16 8 -3 13 -2 10 3
-3 4 6 14 20 22 22 11 27 11 35 -1 6 -10 12 -11 17 -5 4 6 26 17 50 23 40 12
60 42 28 42 -23 0 -30 50 -9 66 10 7 24 14 31 14 6 0 20 8 30 18 14 14 32 18
73 16 29 -1 61 2 70 7 20 10 31 73 18 103 -8 17 -3 36 25 95 32 67 38 95 50
217 2 23 8 50 14 60 5 11 13 39 17 64 4 25 14 58 22 74 8 15 17 40 19 55 6 29
51 81 70 81 7 0 14 4 16 9 8 21 120 107 154 119 44 15 86 34 94 42 3 3 19 16
37 28 17 12 34 30 37 40 3 9 20 23 38 30 18 7 41 18 50 23 10 5 31 9 48 9 19
0 30 5 30 14 0 8 7 16 15 20 8 3 15 1 15 -4 0 -6 5 -10 12 -10 9 0 9 3 0 12
-14 14 -16 68 -2 68 6 0 18 -8 29 -19 18 -18 19 -18 35 9 14 25 14 29 1 40
-13 10 -15 9 -15 -9 0 -18 -3 -20 -20 -11 -22 12 -17 37 8 43 39 10 64 6 68
-10z m875 1 c-38 -17 -92 -15 -99 4 -3 9 14 12 65 11 l68 -1 -34 -14z m-381
-14 c0 -5 -4 -10 -10 -10 -5 0 -10 5 -10 10 0 6 5 10 10 10 6 0 10 -4 10 -10z
m-2775 -9 c10 -17 -12 -21 -25 -6 -10 12 -10 15 3 15 9 0 18 -4 22 -9z m2061
-10 c0 -11 -5 -17 -13 -14 -7 3 -13 11 -13 19 0 8 6 14 13 14 7 0 13 -8 13
-19z m-2036 -37 c0 -8 -4 -12 -10 -9 -5 3 -10 10 -10 16 0 5 5 9 10 9 6 0 10
-7 10 -16z m2404 0 c5 -12 2 -15 -10 -10 -8 3 -18 6 -20 6 -3 0 -2 5 1 10 9
15 22 12 29 -6z m308 -34 c-2 -22 -9 -43 -15 -47 -6 -4 -8 0 -4 11 4 10 1 19
-8 22 -8 4 -15 10 -15 16 0 5 5 6 10 3 6 -3 10 5 10 19 0 16 4 24 13 20 8 -3
11 -18 9 -44z m-112 -10 c0 -5 -4 -10 -10 -10 -5 0 -10 5 -10 10 0 6 5 10 10
10 6 0 10 -4 10 -10z m-950 -40 c0 -5 -15 -10 -34 -10 -19 0 -38 5 -41 10 -4
6 10 10 34 10 23 0 41 -4 41 -10z m-1590 -36 c0 -8 -4 -12 -10 -9 -5 3 -10 10
-10 16 0 5 5 9 10 9 6 0 10 -7 10 -16z m-245 -4 c3 -5 2 -10 -3 -10 -6 0 -8
-10 -4 -22 3 -14 2 -19 -6 -14 -14 9 -16 56 -3 56 6 0 13 -4 16 -10z m3145
-40 c0 -5 -4 -10 -10 -10 -5 0 -10 5 -10 10 0 6 5 10 10 10 6 0 10 -4 10 -10z
m-466 -42 c-3 -5 -12 -4 -20 3 -7 6 -11 15 -8 21 3 5 12 4 20 -3 7 -6 11 -15
8 -21z m616 -8 c0 -5 -2 -10 -4 -10 -3 0 -8 5 -11 10 -3 6 -1 10 4 10 6 0 11
-4 11 -10z m-686 -65 c-5 -12 -10 -13 -20 -4 -19 15 -18 19 6 19 13 0 18 -5
14 -15z m193 -114 c39 -15 50 -41 26 -58 -21 -16 -38 -12 -38 11 0 9 -5 20
-11 24 -12 8 -28 46 -17 40 5 -3 22 -10 40 -17z m-3686 -31 c5 0 9 -5 9 -11 0
-5 -4 -8 -9 -4 -5 3 -12 -3 -14 -12 -3 -10 -5 0 -5 22 0 22 2 32 5 23 2 -10 9
-18 14 -18z m3239 20 c0 -5 -4 -10 -10 -10 -5 0 -10 5 -10 10 0 6 5 10 10 10
6 0 10 -4 10 -10z m-3160 -40 c0 -5 -2 -10 -4 -10 -3 0 -8 5 -11 10 -3 6 -1
10 4 10 6 0 11 -4 11 -10z m3265 0 c3 -5 1 -10 -4 -10 -6 0 -11 5 -11 10 0 6
2 10 4 10 3 0 8 -4 11 -10z m-68 -20 c-2 -23 -27 -27 -27 -4 0 8 5 12 10 9 6
-3 10 -1 10 4 0 6 2 11 4 11 3 0 4 -9 3 -20z m376 -17 c-8 -20 -28 -43 -38
-43 -4 0 -5 10 -2 23 6 22 6 22 -14 -2 -21 -25 -33 -24 -23 2 3 9 18 20 32 26
41 15 52 13 45 -6z m-226 -25 c-3 -8 -6 -5 -6 6 -1 11 2 17 5 13 3 -3 4 -12 1
-19z m-182 2 c3 -5 1 -10 -4 -10 -6 0 -11 5 -11 10 0 6 2 10 4 10 3 0 8 -4 11
-10z m235 -10 c0 -5 -7 -10 -15 -10 -8 0 -15 5 -15 10 0 6 7 10 15 10 8 0 15
-4 15 -10z m-140 -30 c0 -5 -4 -10 -10 -10 -5 0 -10 5 -10 10 0 6 5 10 10 10
6 0 10 -4 10 -10z m179 -21 c-14 -8 -13 -8 35 -23 18 -6 17 -46 -1 -46 -7 0
-13 5 -13 10 0 6 -6 10 -14 10 -8 0 -18 5 -21 11 -10 16 4 61 16 53 8 -4 7 -9
-2 -15z m-1714 -39 c3 -5 1 -10 -4 -10 -6 0 -11 5 -11 10 0 6 2 10 4 10 3 0 8
-4 11 -10z m45 -40 c0 -5 -4 -10 -9 -10 -6 0 -13 5 -16 10 -3 6 1 10 9 10 9 0
16 -4 16 -10z m1516 -11 c3 -6 1 -15 -6 -19 -7 -4 -9 -13 -6 -19 5 -7 -1 -11
-13 -11 -25 0 -28 18 -5 27 8 3 13 12 10 19 -6 17 10 19 20 3z m299 -10 c11
-17 -1 -21 -15 -4 -8 9 -8 15 -2 15 6 0 14 -5 17 -11z m-185 -19 c0 -5 -4 -10
-10 -10 -5 0 -10 5 -10 10 0 6 5 10 10 10 6 0 10 -4 10 -10z m90 -30 c0 -5 -4
-10 -10 -10 -5 0 -10 5 -10 10 0 6 5 10 10 10 6 0 10 -4 10 -10z m-95 -20 c3
-5 -1 -10 -10 -10 -9 0 -13 5 -10 10 3 6 8 10 10 10 2 0 7 -4 10 -10z m-130
-10 c3 -5 1 -10 -4 -10 -6 0 -11 5 -11 10 0 6 2 10 4 10 3 0 8 -4 11 -10z
m-2585 -14 c0 -8 -4 -18 -10 -21 -5 -3 -10 3 -10 14 0 12 5 21 10 21 6 0 10
-6 10 -14z m470 -6 c0 -5 -5 -10 -11 -10 -5 0 -7 5 -4 10 3 6 8 10 11 10 2 0
4 -4 4 -10z m2213 -5 c-3 -9 -8 -14 -10 -11 -3 3 -2 9 2 15 9 16 15 13 8 -4z
m197 11 c0 -3 -4 -8 -10 -11 -5 -3 -10 -1 -10 4 0 6 5 11 10 11 6 0 10 -2 10
-4z m-130 -31 c0 -8 -4 -15 -10 -15 -5 0 -10 7 -10 15 0 8 5 15 10 15 6 0 10
-7 10 -15z m91 -78 c-8 -8 -11 -7 -11 4 0 20 13 34 18 19 3 -7 -1 -17 -7 -23z
m953 -26 c3 -5 -1 -12 -10 -15 -22 -9 -24 -8 -24 9 0 16 25 21 34 6z m-1336
-19 c2 -7 -3 -12 -12 -12 -9 0 -16 7 -16 16 0 17 22 14 28 -4z m-908 -13 c0
-11 -4 -17 -10 -14 -5 3 -10 13 -10 21 0 8 5 14 10 14 6 0 10 -9 10 -21z
m1260 -4 c0 -8 -4 -15 -10 -15 -5 0 -10 7 -10 15 0 8 5 15 10 15 6 0 10 -7 10
-15z m932 -7 c-7 -7 -12 -8 -12 -2 0 14 12 26 19 19 2 -3 -1 -11 -7 -17z m68
-66 c0 -7 -5 -10 -10 -7 -6 4 -18 -2 -28 -13 -9 -11 -28 -23 -42 -27 -17 -4
-21 -3 -11 3 8 6 11 19 8 34 -6 22 -4 23 38 23 30 0 45 -4 45 -13z m-3692 -30
c2 -7 -3 -12 -12 -12 -9 0 -16 7 -16 16 0 17 22 14 28 -4z m3692 -17 c0 -8 -4
-15 -9 -15 -5 0 -14 7 -21 15 -10 13 -9 15 9 15 12 0 21 -6 21 -15z m-1225
-55 c3 -5 1 -10 -4 -10 -6 0 -11 5 -11 10 0 6 2 10 4 10 3 0 8 -4 11 -10z
m1121 -5 c-11 -8 -24 -15 -30 -15 -5 0 -1 7 10 15 10 8 24 14 29 14 6 0 1 -6
-9 -14z m74 5 c-8 -5 -24 -9 -35 -9 -16 1 -16 2 5 9 35 11 48 11 30 0z m-3260
-29 c0 -24 -18 -37 -32 -23 -8 8 -7 16 2 27 17 21 30 19 30 -4z m3276 -7 c-3
-9 -6 -20 -6 -25 0 -5 -9 -9 -20 -9 -24 0 -25 4 -3 30 21 24 38 26 29 4z
m-1236 -10 c0 -8 -5 -12 -10 -9 -6 4 -8 11 -5 16 9 14 15 11 15 -7z m105 -55
c-10 -15 -25 -10 -19 6 4 8 10 12 15 9 5 -3 7 -10 4 -15z m1121 -18 c-3 -4 1
-17 9 -27 8 -10 15 -25 15 -31 0 -15 -36 -17 -45 -3 -3 6 -14 10 -25 10 -23 0
-34 27 -17 45 13 15 72 21 63 6z m-2476 -41 c-8 -5 -17 -7 -19 -4 -3 3 1 9 9
14 8 5 17 7 19 4 3 -3 -1 -9 -9 -14z m-1610 -40 c0 -5 -7 -10 -15 -10 -8 0
-15 5 -15 10 0 6 7 10 15 10 8 0 15 -4 15 -10z m4069 -2 c-1 -7 -4 -24 -9 -38
l-7 -25 -12 28 c-15 39 -14 47 9 47 11 0 20 -6 19 -12z m-4115 -29 c-3 -5 -10
-7 -15 -3 -5 3 -7 10 -3 15 3 5 10 7 15 3 5 -3 7 -10 3 -15z m2956 6 c0 -8 -4
-15 -10 -15 -5 0 -10 7 -10 15 0 8 5 15 10 15 6 0 10 -7 10 -15z m140 -15 c0
-5 -4 -10 -10 -10 -5 0 -10 5 -10 10 0 6 5 10 10 10 6 0 10 -4 10 -10z m-1600
-10 c0 -5 -2 -10 -4 -10 -3 0 -8 5 -11 10 -3 6 -1 10 4 10 6 0 11 -4 11 -10z
m2370 -31 c0 -5 -4 -9 -10 -9 -5 0 -10 7 -10 16 0 8 5 12 10 9 6 -3 10 -10 10
-16z m-865 -29 c3 -5 -3 -10 -14 -10 -12 0 -21 5 -21 10 0 6 6 10 14 10 8 0
18 -4 21 -10z m850 0 c3 -5 1 -10 -4 -10 -6 0 -11 5 -11 10 0 6 2 10 4 10 3 0
8 -4 11 -10z m-1648 -16 c3 -9 1 -19 -6 -23 -7 -4 -11 -14 -9 -21 2 -7 -3 -15
-9 -17 -7 -3 -13 1 -13 9 0 10 -3 9 -10 -2 -5 -8 -12 -11 -16 -7 -4 4 2 17 14
30 12 13 22 29 22 35 0 18 20 15 27 -4z m853 -30 c0 -11 -28 -33 -34 -27 -13
13 -5 33 14 33 11 0 20 -3 20 -6z m220 -27 c0 -5 -4 -5 -10 -2 -5 3 -10 14
-10 23 0 15 2 15 10 2 5 -8 10 -19 10 -23z m25 3 c3 -5 1 -10 -4 -10 -6 0 -11
5 -11 10 0 6 2 10 4 10 3 0 8 -4 11 -10z m29 -16 c3 -8 2 -12 -4 -9 -6 3 -10
10 -10 16 0 14 7 11 14 -7z m-1089 -34 c-5 -8 -11 -8 -17 -2 -6 6 -7 16 -3 22
5 8 11 8 17 2 6 -6 7 -16 3 -22z m455 26 c0 -3 -4 -8 -10 -11 -5 -3 -10 -1
-10 4 0 6 5 11 10 11 6 0 10 -2 10 -4z m-490 -16 c0 -5 -5 -10 -11 -10 -5 0
-7 5 -4 10 3 6 8 10 11 10 2 0 4 -4 4 -10z m960 0 c0 -5 -2 -10 -4 -10 -3 0
-8 5 -11 10 -3 6 -1 10 4 10 6 0 11 -4 11 -10z m-430 -10 c0 -5 -4 -10 -10
-10 -5 0 -10 5 -10 10 0 6 5 10 10 10 6 0 10 -4 10 -10z m308 -11 c-7 -5 -21
-9 -30 -9 -10 0 -18 -4 -18 -9 0 -5 14 -7 30 -5 25 4 30 2 30 -16 0 -22 -28
-39 -39 -23 -3 5 -16 9 -28 8 -13 -1 -23 5 -26 16 -6 23 47 59 75 51 15 -4 17
-7 6 -13z m239 -5 c-9 -9 -28 6 -21 18 4 6 10 6 17 -1 6 -6 8 -13 4 -17z m-62
6 c3 -5 1 -10 -4 -10 -6 0 -11 5 -11 10 0 6 2 10 4 10 3 0 8 -4 11 -10z m-553
-15 c0 -5 -5 -11 -11 -13 -6 -2 -11 4 -11 13 0 9 5 15 11 13 6 -2 11 -8 11
-13z m445 -5 c9 -13 9 -21 2 -26 -12 -7 -29 13 -29 34 0 18 14 15 27 -8z
m-177 0 c0 -5 -4 -10 -10 -10 -5 0 -10 5 -10 10 0 6 5 10 10 10 6 0 10 -4 10
-10z m347 -22 c-3 -8 -6 -5 -6 6 -1 11 2 17 5 13 3 -3 4 -12 1 -19z m-917 -3
c0 -8 -4 -15 -10 -15 -5 0 -10 7 -10 15 0 8 5 15 10 15 6 0 10 -7 10 -15z
m-160 -2 c0 -5 -11 -9 -25 -9 -14 -1 -22 2 -19 7 6 11 44 12 44 2z m220 -13
c0 -5 -4 -10 -10 -10 -5 0 -10 5 -10 10 0 6 5 10 10 10 6 0 10 -4 10 -10z
m720 0 c0 -5 -2 -10 -4 -10 -3 0 -8 5 -11 10 -3 6 -1 10 4 10 6 0 11 -4 11
-10z m-585 -19 c8 -25 75 -71 103 -71 13 0 25 -7 28 -15 4 -8 15 -15 25 -15
11 0 27 -16 41 -40 13 -22 27 -40 31 -40 5 0 5 5 2 10 -3 6 -1 10 4 10 6 0 11
-5 11 -11 0 -5 5 -7 10 -4 6 4 23 -5 37 -19 24 -24 28 -25 43 -11 9 8 18 15
21 15 4 0 2 -52 -4 -120 -1 -18 3 -25 15 -25 10 0 18 -4 18 -8 0 -4 0 -14 0
-22 0 -10 -10 -15 -30 -15 -20 0 -30 5 -28 13 4 17 -31 59 -62 74 -14 7 -44
17 -67 24 -49 14 -70 33 -75 69 -2 14 -9 24 -15 23 -6 -2 -28 12 -47 29 -27
24 -36 40 -36 63 0 24 -6 35 -25 43 -17 8 -25 20 -25 37 0 29 16 33 25 6z
m395 4 c0 -8 12 -18 27 -21 24 -6 25 -8 8 -14 -32 -11 -55 0 -55 26 0 13 5 24
10 24 6 0 10 -7 10 -15z m-71 -9 c10 -12 8 -13 -9 -9 -25 7 -37 23 -17 23 8 0
20 -6 26 -14z m1031 -6 c0 -11 5 -20 10 -20 6 0 10 -7 10 -15 0 -8 -4 -15 -10
-15 -5 0 -10 5 -10 10 0 6 -7 10 -16 10 -11 0 -14 5 -10 16 3 9 6 20 6 25 0 5
5 9 10 9 6 0 10 -9 10 -20z m237 -2 c-3 -8 -6 -5 -6 6 -1 11 2 17 5 13 3 -3 4
-12 1 -19z m-1057 2 c0 -5 -4 -10 -10 -10 -5 0 -10 5 -10 10 0 6 5 10 10 10 6
0 10 -4 10 -10z m240 0 c0 -5 -2 -10 -4 -10 -3 0 -8 5 -11 10 -3 6 -1 10 4 10
6 0 11 -4 11 -10z m440 0 c0 -5 -4 -10 -10 -10 -5 0 -10 5 -10 10 0 6 5 10 10
10 6 0 10 -4 10 -10z m-1040 -10 c0 -5 -2 -10 -4 -10 -3 0 -8 5 -11 10 -3 6
-1 10 4 10 6 0 11 -4 11 -10z m185 0 c3 -5 1 -10 -4 -10 -6 0 -11 5 -11 10 0
6 2 10 4 10 3 0 8 -4 11 -10z m-1700 -10 c3 -5 2 -10 -4 -10 -5 0 -13 5 -16
10 -3 6 -2 10 4 10 5 0 13 -4 16 -10z m1463 -1 c-2 -6 -8 -10 -13 -10 -5 0
-11 4 -13 10 -2 6 4 11 13 11 9 0 15 -5 13 -11z m162 -25 c0 -8 -4 -12 -10 -9
-5 3 -10 10 -10 16 0 5 5 9 10 9 6 0 10 -7 10 -16z m130 2 c0 -3 -4 -8 -10
-11 -5 -3 -10 -1 -10 4 0 6 5 11 10 11 6 0 10 -2 10 -4z m237 -21 c-12 -25
-27 -33 -27 -14 0 5 -4 8 -9 5 -5 -3 -7 -16 -3 -28 3 -14 2 -19 -7 -14 -6 4
-9 12 -6 17 4 5 2 9 -3 9 -6 0 -8 9 -5 20 4 15 12 19 29 16 13 -3 26 0 29 5
12 18 13 8 2 -16z m93 -29 c-6 -5 -15 -4 -25 4 -12 10 -13 16 -4 26 10 12 14
11 25 -3 7 -11 9 -22 4 -27z m-394 10 c7 -16 8 -28 2 -34 -7 -7 3 -10 27 -10
43 0 67 -17 36 -25 -12 -3 -24 -1 -27 4 -3 5 -10 9 -15 9 -6 0 -8 -4 -5 -9 4
-5 -3 -7 -15 -4 -14 4 -19 12 -16 24 3 10 -1 26 -9 36 -17 23 -17 33 -1 33 6
0 17 -11 23 -24z m1064 14 c0 -5 -7 -10 -15 -10 -8 0 -15 5 -15 10 0 6 7 10
15 10 8 0 15 -4 15 -10z m-1120 -10 c0 -5 -2 -10 -4 -10 -3 0 -8 5 -11 10 -3
6 -1 10 4 10 6 0 11 -4 11 -10z m185 -11 c-1 -12 -9 -25 -18 -30 -13 -8 -15
-5 -12 18 2 16 4 29 4 31 1 1 7 2 14 2 8 0 13 -9 12 -21z m1025 11 c21 -7 18
-8 -18 -9 -26 -1 -41 3 -37 9 7 11 19 11 55 0z m-697 -20 c-3 -11 -7 -20 -9
-20 -2 0 -4 9 -4 20 0 11 4 20 9 20 5 0 7 -9 4 -20z m41 -1 c-3 -5 -10 -7 -15
-3 -5 3 -7 10 -3 15 3 5 10 7 15 3 5 -3 7 -10 3 -15z m336 11 c0 -5 -2 -10 -4
-10 -3 0 -8 5 -11 10 -3 6 -1 10 4 10 6 0 11 -4 11 -10z m380 0 c0 -5 -7 -10
-15 -10 -8 0 -15 5 -15 10 0 6 7 10 15 10 8 0 15 -4 15 -10z m-1138 -12 c-9
-9 -15 -9 -24 0 -9 9 -7 12 12 12 19 0 21 -3 12 -12z m955 -10 c-3 -8 -6 -5
-6 6 -1 11 2 17 5 13 3 -3 4 -12 1 -19z m-667 2 c0 -5 -4 -10 -10 -10 -5 0
-10 5 -10 10 0 6 5 10 10 10 6 0 10 -4 10 -10z m-140 -14 c0 -18 -48 -72 -56
-64 -3 3 3 14 14 24 10 11 22 27 25 37 8 21 17 22 17 3z m565 4 c3 -5 2 -10
-4 -10 -5 0 -13 5 -16 10 -3 6 -2 10 4 10 5 0 13 -4 16 -10z m280 -1 c11 -17
-1 -21 -15 -4 -8 9 -8 15 -2 15 6 0 14 -5 17 -11z m-765 -9 c0 -12 -28 -25
-36 -17 -9 9 6 27 22 27 8 0 14 -5 14 -10z m625 -10 c3 -10 1 -28 -5 -40 -9
-16 -15 -18 -30 -10 -11 6 -17 17 -15 25 3 8 7 22 10 30 6 22 33 19 40 -5z
m-1745 -25 c0 -8 -4 -15 -10 -15 -5 0 -10 7 -10 15 0 8 5 15 10 15 6 0 10 -7
10 -15z m1143 0 c-3 -9 -8 -14 -10 -11 -3 3 -2 9 2 15 9 16 15 13 8 -4z m482
5 c3 -5 1 -10 -4 -10 -6 0 -11 5 -11 10 0 6 2 10 4 10 3 0 8 -4 11 -10z
m-1700 -10 c-3 -5 -11 -10 -16 -10 -6 0 -7 5 -4 10 3 6 11 10 16 10 6 0 7 -4
4 -10z m-135 -10 c0 -5 -4 -10 -10 -10 -5 0 -10 5 -10 10 0 6 5 10 10 10 6 0
10 -4 10 -10z m1150 0 c0 -5 -4 -10 -10 -10 -5 0 -10 5 -10 10 0 6 5 10 10 10
6 0 10 -4 10 -10z m230 -26 c-18 -21 -24 -10 -9 18 8 14 14 18 17 10 2 -7 -2
-19 -8 -28z m-1210 22 c0 -3 -4 -8 -10 -11 -5 -3 -10 -1 -10 4 0 6 5 11 10 11
6 0 10 -2 10 -4z m1097 -2 c-3 -3 -12 -4 -19 -1 -8 3 -5 6 6 6 11 1 17 -2 13
-5z m830 -13 c12 -18 8 -31 -9 -31 -4 0 -8 7 -8 15 0 7 -8 19 -17 24 -17 10
-16 10 2 11 11 0 26 -9 32 -19z m-4360 -37 c23 -25 24 -28 9 -64 -12 -29 -12
-40 -3 -43 7 -3 2 -6 -9 -6 -32 -1 -48 -25 -33 -48 9 -15 8 -25 -4 -49 -16
-28 -16 -23 -17 104 0 116 2 132 16 132 9 0 28 -12 41 -26z m1693 16 c0 -5 -5
-10 -11 -10 -5 0 -7 5 -4 10 3 6 8 10 11 10 2 0 4 -4 4 -10z m620 0 c0 -5 -4
-10 -10 -10 -5 0 -10 5 -10 10 0 6 5 10 10 10 6 0 10 -4 10 -10z m1945 -10 c0
-22 -21 -22 -22 1 -1 12 3 19 10 16 7 -2 12 -10 12 -17z m155 -6 c0 -8 -4 -14
-10 -14 -5 0 -10 9 -10 21 0 11 5 17 10 14 6 -3 10 -13 10 -21z m-200 -5 c0
-6 -4 -7 -10 -4 -5 3 -10 11 -10 16 0 6 5 7 10 4 6 -3 10 -11 10 -16z m316 -1
c-1 -13 -11 -25 -20 -26 -17 -4 -17 -2 -1 22 21 32 26 33 21 4z m-2626 -14 c0
-8 -10 -14 -24 -14 -34 0 -42 18 -14 29 27 10 38 6 38 -15z m2419 -3 c-15 -5
-22 6 -14 19 6 9 10 9 16 -1 5 -8 4 -15 -2 -18z m-156 -41 c18 0 19 -2 7 -10
-13 -8 -12 -11 5 -24 19 -14 19 -15 -5 -13 -14 0 -28 6 -33 12 -4 6 -14 1 -27
-15 -17 -21 -21 -23 -30 -10 -5 8 -10 18 -10 22 0 10 30 38 41 38 5 0 9 8 9
18 1 16 1 16 11 0 5 -10 20 -18 32 -18z m111 14 c4 -10 13 -13 28 -9 18 5 20
4 8 -4 -21 -15 -39 -14 -56 3 -18 18 -18 26 0 26 8 0 17 -7 20 -16z m140 2 c9
3 16 1 16 -5 0 -6 -5 -11 -11 -11 -6 0 -9 -7 -5 -15 7 -19 3 -19 -34 3 -22 14
-27 21 -18 30 8 8 15 8 23 2 7 -6 20 -8 29 -4z m-2214 -16 c0 -5 -5 -10 -11
-10 -5 0 -7 5 -4 10 3 6 8 10 11 10 2 0 4 -4 4 -10z m2304 2 c2 -4 -4 -9 -15
-9 -10 -1 -19 2 -19 8 0 11 27 12 34 1z m-2448 -30 c-4 -3 -14 2 -24 12 -16
18 -16 18 6 6 13 -6 21 -14 18 -18z m1484 -13 c0 -5 -7 -9 -15 -9 -15 0 -20
12 -9 23 8 8 24 -1 24 -14z m-1545 1 c3 -5 2 -10 -4 -10 -5 0 -13 5 -16 10 -3
6 -2 10 4 10 5 0 13 -4 16 -10z m103 -8 c2 -7 -7 -12 -23 -12 -24 0 -26 2 -15
15 14 17 31 16 38 -3z m139 -16 c-6 -36 1 -39 40 -18 31 17 36 15 30 -14 -2
-14 2 -31 10 -39 8 -8 12 -19 8 -24 -3 -6 4 -15 15 -21 25 -13 26 -30 1 -30
-18 0 -58 64 -53 84 6 18 -23 25 -40 10 -21 -19 -52 -15 -56 9 -3 16 32 77 45
77 3 0 3 -15 0 -34z m97 13 c-3 -5 -10 -7 -15 -3 -5 3 -7 10 -3 15 3 5 10 7
15 3 5 -3 7 -10 3 -15z m-424 1 c0 -5 -2 -10 -4 -10 -3 0 -8 5 -11 10 -3 6 -1
10 4 10 6 0 11 -4 11 -10z m-1810 -15 c18 -21 5 -45 -25 -45 -33 0 -45 28 -20
46 24 18 30 17 45 -1z m3879 -43 c47 -43 49 -49 19 -54 -25 -4 -37 -28 -14
-28 9 0 16 5 16 10 0 6 7 10 15 10 21 0 31 -30 14 -41 -12 -8 -12 -10 0 -18
18 -12 6 -42 -14 -35 -11 5 -15 0 -15 -19 0 -25 25 -55 37 -43 4 3 -2 12 -12
20 -13 9 -15 15 -6 20 6 4 18 0 27 -9 12 -12 20 -13 27 -6 19 19 24 12 22 -36
-2 -53 -11 -96 -28 -131 -9 -18 -8 -25 2 -31 10 -7 10 -14 -3 -37 -15 -28 -16
-29 -22 -6 -7 25 -24 30 -24 7 0 -8 -7 -15 -15 -15 -9 0 -15 9 -15 25 0 16 -6
25 -15 25 -20 0 -19 16 3 38 29 29 32 48 11 66 -11 9 -17 21 -14 26 7 12 -25
13 -43 2 -7 -5 -10 -17 -6 -28 3 -11 2 -15 -3 -9 -4 6 -21 19 -37 29 -27 17
-30 17 -41 2 -7 -9 -17 -16 -24 -16 -6 0 -11 -7 -11 -16 0 -11 6 -14 23 -9 12
4 26 11 32 16 11 11 35 12 35 2 0 -5 -12 -21 -26 -38 -14 -16 -23 -22 -20 -13
4 14 0 16 -23 12 -24 -5 -29 -2 -35 19 -3 14 -9 32 -12 41 -4 11 2 19 17 25
l24 10 -24 0 c-23 1 -23 2 -8 19 10 10 17 26 17 34 0 9 7 18 15 22 9 3 15 18
15 39 0 19 7 40 15 47 8 7 12 16 9 21 -3 5 0 9 5 9 6 0 11 8 11 17 0 14 2 15
13 4 10 -11 10 -14 0 -18 -7 -3 -13 -11 -13 -20 0 -11 7 -9 29 9 23 18 28 29
25 56 -2 17 -2 32 0 32 2 0 22 -17 45 -38z m-3949 24 c0 -3 -4 -8 -10 -11 -5
-3 -10 -1 -10 4 0 6 5 11 10 11 6 0 10 -2 10 -4z m4370 -5 c0 -6 -4 -13 -10
-16 -5 -3 -10 1 -10 9 0 9 5 16 10 16 6 0 10 -4 10 -9z m-2580 -15 c0 -11 -19
-15 -25 -6 -3 5 1 10 9 10 9 0 16 -2 16 -4z m2400 -26 c0 -5 10 -10 22 -10
l22 0 -22 -16 c-16 -11 -20 -19 -13 -28 6 -7 7 -22 4 -35 -5 -21 -3 -22 17
-16 15 5 25 2 31 -6 12 -19 11 -99 -1 -99 -5 0 -10 -9 -10 -20 0 -11 -6 -20
-14 -20 -17 0 -38 24 -29 33 3 4 -3 7 -15 7 -27 0 -28 -16 -2 -30 11 -6 20
-17 20 -24 0 -19 28 -28 51 -16 27 15 33 9 55 -60 12 -40 29 -71 47 -86 16
-13 23 -24 17 -24 -8 0 -11 -10 -7 -30 4 -16 2 -32 -3 -35 -16 -10 -11 -25 5
-19 8 4 15 1 15 -5 0 -6 -4 -11 -10 -11 -5 0 -7 -7 -4 -15 4 -8 1 -15 -5 -15
-6 0 -11 4 -11 10 0 5 -12 13 -27 16 -16 4 -31 12 -35 18 -4 6 -8 -4 -8 -22 0
-30 -2 -33 -22 -26 -13 4 -26 12 -30 18 -4 6 -18 11 -30 11 -16 0 -23 6 -23
20 0 28 -17 43 -51 47 -23 2 -29 8 -28 26 0 12 -5 22 -13 22 -11 0 -10 8 6 38
24 46 32 80 20 88 -14 8 -10 24 6 24 8 0 15 6 15 14 0 8 6 16 13 19 8 3 5 12
-10 29 -13 13 -23 34 -23 47 0 13 -4 20 -11 16 -16 -10 -37 24 -44 73 -4 25
-12 42 -19 42 -8 0 -16 11 -18 25 -4 21 -1 25 18 25 13 0 24 -4 24 -10 0 -5
11 -10 25 -10 14 0 25 4 25 9 0 6 15 12 33 14 17 2 35 5 40 5 4 1 7 -2 7 -8z
m300 -25 c0 -7 -13 -15 -30 -18 -18 -4 -30 -13 -30 -22 0 -8 -4 -15 -10 -15
-5 0 -10 7 -10 15 0 8 -5 15 -11 15 -8 0 -8 4 0 14 9 11 9 15 -1 20 -7 3 -1 4
13 1 17 -3 31 1 39 10 10 12 16 13 26 4 8 -6 14 -17 14 -24z m-2150 4 c0 -11
-4 -17 -10 -14 -5 3 -10 13 -10 21 0 8 5 14 10 14 6 0 10 -9 10 -21z m-425 1
c3 -5 1 -10 -4 -10 -6 0 -11 5 -11 10 0 6 2 10 4 10 3 0 8 -4 11 -10z m30 -41
c8 -24 -10 -48 -25 -33 -10 10 -2 54 10 54 5 0 12 -9 15 -21z m2544 -3 c14
-17 0 -29 -23 -20 -17 7 -20 16 -9 27 10 11 19 8 32 -7z m-110 -18 c5 -13 5
-25 2 -28 -4 -3 -8 -20 -9 -39 -4 -49 -18 -65 -44 -47 -11 8 -27 12 -34 9 -19
-7 -18 12 1 31 8 8 19 25 24 38 8 23 7 24 -20 20 -23 -3 -28 -1 -23 11 5 14
26 21 77 26 10 0 21 -9 26 -21z m-1811 -6 c2 -7 -3 -12 -12 -12 -9 0 -16 7
-16 16 0 17 22 14 28 -4z m-480 -10 c2 -7 -2 -10 -12 -6 -9 3 -16 11 -16 16 0
13 23 5 28 -10z m-208 4 c0 -11 -19 -15 -25 -6 -3 5 1 10 9 10 9 0 16 -2 16
-4z m-133 -26 c26 0 30 -12 10 -29 -16 -12 -67 6 -67 25 0 17 13 25 24 14 5
-5 20 -10 33 -10z m225 -17 c12 -13 16 -23 10 -23 -7 0 -12 5 -12 11 0 6 -7 9
-15 5 -8 -3 -15 0 -15 6 0 6 -11 8 -30 5 -18 -4 -30 -2 -30 4 0 6 5 7 10 4 6
-3 10 -1 10 4 0 19 50 7 72 -16z m368 17 c0 -5 -4 -10 -10 -10 -5 0 -10 5 -10
10 0 6 5 10 10 10 6 0 10 -4 10 -10z m1955 -10 c3 -5 1 -10 -4 -10 -6 0 -11 5
-11 10 0 6 2 10 4 10 3 0 8 -4 11 -10z m-3255 -20 c0 -5 -4 -10 -10 -10 -5 0
-10 5 -10 10 0 6 5 10 10 10 6 0 10 -4 10 -10z m1045 0 c3 -5 1 -10 -6 -10 -7
0 -9 -8 -6 -21 4 -15 1 -19 -11 -17 -22 4 -29 38 -7 38 9 0 13 5 10 10 -3 6
-2 10 4 10 5 0 13 -4 16 -10z m279 -15 c-22 -16 -34 -19 -34 -7 0 10 43 32 49
26 3 -2 -4 -11 -15 -19z m-219 -15 c3 -5 -1 -10 -9 -10 -8 0 -18 5 -21 10 -3
6 1 10 9 10 8 0 18 -4 21 -10z m2355 -56 c0 -8 -7 -14 -15 -14 -8 0 -15 -4
-15 -10 0 -10 -20 -33 -52 -58 -14 -11 -18 -8 -32 19 -20 39 -20 39 -1 39 8 0
15 -4 15 -10 0 -5 4 -10 10 -10 6 0 6 9 0 25 -6 16 -6 25 0 25 6 0 10 -4 10
-10 0 -19 38 -10 43 10 6 23 37 17 37 -6z m-1350 -4 c0 -5 -7 -10 -16 -10 -8
0 -12 5 -9 10 3 6 10 10 16 10 5 0 9 -4 9 -10z m-1010 -10 c0 -5 -5 -10 -11
-10 -5 0 -7 5 -4 10 3 6 8 10 11 10 2 0 4 -4 4 -10z m926 -7 c28 -25 61 -43
79 -43 18 0 19 -12 4 -27 -18 -18 -3 -46 20 -38 28 9 35 -12 16 -42 -17 -25
-17 -26 1 -18 11 4 27 10 37 12 21 6 22 17 3 33 -22 17 -8 42 18 34 28 -9 30
-11 32 -42 3 -49 4 -52 19 -52 9 0 20 -12 25 -26 8 -21 15 -25 35 -20 13 3 26
2 29 -3 7 -11 58 6 107 35 l35 21 -2 -26 c-2 -42 -3 -44 -24 -38 -11 3 -20 1
-20 -4 0 -5 7 -9 16 -9 9 0 14 -7 12 -17 -1 -10 1 -24 5 -30 6 -9 2 -13 -12
-13 -13 0 -21 9 -26 30 -7 32 -22 39 -31 15 -4 -8 -10 -12 -15 -9 -5 3 -16
-10 -24 -30 -11 -26 -12 -42 -5 -62 11 -27 5 -47 -8 -28 -4 6 -20 16 -37 21
-16 6 -29 16 -27 23 3 11 0 11 -13 0 -18 -15 -28 -9 -19 13 3 9 12 13 20 10
16 -6 19 23 5 45 -6 11 -13 8 -29 -12 -19 -25 -42 -35 -42 -18 0 4 6 14 13 21
10 11 10 14 0 18 -7 3 -13 11 -13 18 0 17 -36 38 -50 30 -18 -11 -11 -45 15
-73 l25 -27 -22 -8 c-11 -4 -30 -5 -42 -1 -17 5 -19 4 -9 -7 10 -10 10 -16 0
-28 -11 -14 -10 -14 6 -2 13 10 21 11 29 3 13 -13 1 -33 -20 -31 -30 3 -42 -1
-42 -12 0 -5 4 -8 8 -5 4 2 14 1 21 -4 19 -11 3 -32 -18 -25 -12 4 -21 -3 -30
-21 -9 -21 -14 -24 -26 -14 -8 6 -19 9 -24 6 -5 -4 -12 -2 -16 4 -10 16 -22
12 -52 -20 -32 -34 -48 -39 -41 -12 4 13 -1 17 -21 17 -31 0 -50 -21 -43 -47
7 -29 -5 -21 -22 14 -9 17 -14 40 -10 50 3 11 0 25 -6 33 -15 18 -4 36 15 28
8 -3 15 -1 15 5 0 6 -6 12 -12 15 -10 3 -10 7 0 20 8 9 20 13 28 10 8 -3 14
-1 14 5 0 5 -12 13 -27 18 -21 5 -24 8 -11 11 13 3 17 13 15 36 -2 25 2 32 22
37 l24 5 -27 13 c-15 7 -31 10 -36 7 -4 -3 -10 4 -13 15 -6 23 -34 37 -47 24
-5 -5 -12 -26 -15 -46 -6 -31 -4 -38 9 -38 9 0 16 -7 16 -15 0 -9 -8 -14 -22
-12 -12 1 -23 -4 -24 -10 -1 -7 -2 -18 -3 -25 0 -6 -14 4 -31 22 -16 18 -42
41 -56 51 -16 10 -22 19 -15 23 6 4 11 2 11 -3 0 -19 20 -12 21 7 0 12 3 10
12 -8 19 -42 57 -65 57 -35 0 8 -6 15 -14 15 -10 0 -5 15 17 49 18 26 35 46
40 44 4 -2 7 1 7 6 0 19 18 12 25 -9 9 -28 35 -25 35 4 0 13 7 26 15 30 8 3
15 14 15 25 0 11 5 23 10 26 15 9 12 25 -5 25 -11 0 -14 7 -9 25 4 17 2 25 -7
25 -18 0 -2 13 21 17 11 2 20 -1 20 -6 0 -5 9 -11 20 -14 16 -4 19 -11 15 -30
-4 -14 -2 -28 4 -32 6 -3 9 -11 6 -16 -4 -5 -1 -9 4 -9 6 0 10 10 8 22 -1 17
4 24 21 26 25 4 26 6 12 33 -6 10 -21 19 -33 20 -21 0 -21 1 -2 9 30 13 39 12
61 -7z m292 11 c12 -2 22 -11 22 -19 0 -11 13 -14 56 -12 33 2 59 -2 65 -9 13
-15 -3 -26 -25 -18 -9 3 -16 1 -16 -5 0 -6 -7 -8 -15 -5 -8 4 -13 10 -10 14 2
4 -9 6 -25 4 -17 -2 -30 1 -30 7 0 7 -22 10 -59 7 -33 -1 -60 0 -60 5 -2 21 0
26 17 29 29 6 56 6 80 2z m-584 -22 c2 -4 0 -14 -5 -22 -8 -11 -12 -12 -15 -3
-4 10 -10 10 -25 0 -24 -15 -26 -39 -1 -30 26 10 12 -2 -44 -35 -42 -25 -59
-29 -95 -25 -38 4 -47 1 -68 -21 -19 -20 -34 -26 -68 -26 -24 0 -43 -4 -43
-10 0 -5 -5 -10 -12 -10 -6 0 -20 -7 -30 -16 -17 -16 -18 -15 -14 34 2 27 0
56 -5 63 -12 20 64 60 101 52 23 -4 30 -2 30 11 0 11 9 16 26 16 14 0 23 -4
20 -9 -8 -12 4 -41 16 -41 5 0 8 12 6 28 -2 22 1 28 19 30 17 3 21 0 17 -12
-4 -11 0 -16 11 -16 12 0 15 5 10 20 -4 14 -2 20 8 20 9 0 17 -6 19 -12 3 -9
9 -8 22 5 18 18 110 25 120 9z m126 -46 c0 -27 -18 -46 -44 -46 -18 0 -18 1
-1 20 9 10 15 28 13 38 -4 15 -1 18 13 15 11 -3 19 -14 19 -27z m689 18 c12
-11 -10 -14 -28 -4 -12 6 -26 8 -31 5 -6 -3 -10 -1 -10 5 0 10 57 5 69 -6z
m-1296 -14 c4 -15 0 -20 -14 -20 -21 0 -22 1 -13 24 8 22 21 20 27 -4z m67 0
c0 -5 -2 -10 -4 -10 -3 0 -8 5 -11 10 -3 6 -1 10 4 10 6 0 11 -4 11 -10z
m-1340 -10 c0 -5 -4 -10 -10 -10 -5 0 -10 5 -10 10 0 6 5 10 10 10 6 0 10 -4
10 -10z m2550 -5 c10 -12 10 -15 -3 -15 -8 0 -21 -2 -29 -3 -7 -2 -10 -2 -5 0
4 3 7 11 7 19 0 18 14 18 30 -1z m924 -12 c4 -9 2 -19 -4 -23 -7 -4 -10 -14
-8 -23 3 -18 -3 -20 -34 -11 -25 8 -49 34 -42 46 9 15 24 8 24 -10 0 -10 7
-19 15 -19 8 0 12 4 9 9 -3 4 1 11 10 14 8 3 12 12 9 20 -3 8 -1 14 5 14 5 0
13 -8 16 -17z m-1124 -12 c0 -11 -26 -22 -34 -14 -12 12 -5 23 14 23 11 0 20
-4 20 -9z m90 -17 c0 -17 -22 -14 -28 4 -2 7 3 12 12 12 9 0 16 -7 16 -16z
m-590 -14 c0 -5 -7 -10 -15 -10 -8 0 -15 5 -15 10 0 6 7 10 15 10 8 0 15 -4
15 -10z m-1912 -12 c-3 -7 -16 -13 -31 -13 -20 -1 -24 2 -15 12 14 17 51 17
46 1z m2377 -11 c0 -26 -20 -25 -23 2 -3 16 1 22 10 19 7 -3 13 -12 13 -21z
m-535 -7 c0 -5 -2 -10 -4 -10 -3 0 -8 5 -11 10 -3 6 -1 10 4 10 6 0 11 -4 11
-10z m700 -10 c0 -5 -4 -10 -10 -10 -5 0 -10 5 -10 10 0 6 5 10 10 10 6 0 10
-4 10 -10z m-2504 -56 c-15 -17 -18 -11 -10 22 6 25 8 26 14 9 4 -11 2 -25 -4
-31z m3504 16 c0 -16 -4 -30 -10 -30 -5 0 -10 6 -10 14 0 8 -3 21 -6 30 -4 11
-1 16 10 16 11 0 16 -9 16 -30z m-1850 0 c0 -5 -7 -10 -16 -10 -8 0 -12 5 -9
10 3 6 10 10 16 10 5 0 9 -4 9 -10z m1010 -20 c0 -5 -4 -10 -10 -10 -5 0 -10
5 -10 10 0 6 5 10 10 10 6 0 10 -4 10 -10z m-2700 -10 c0 -5 -5 -10 -11 -10
-5 0 -7 5 -4 10 3 6 8 10 11 10 2 0 4 -4 4 -10z m2620 0 c0 -5 -4 -10 -10 -10
-5 0 -10 5 -10 10 0 6 5 10 10 10 6 0 10 -4 10 -10z m-1260 -10 c0 -5 -7 -10
-15 -10 -8 0 -15 5 -15 10 0 6 7 10 15 10 8 0 15 -4 15 -10z m2117 -12 c-3 -8
-6 -5 -6 6 -1 11 2 17 5 13 3 -3 4 -12 1 -19z m-3529 -12 c-15 -15 -58 -31
-58 -21 0 15 27 34 48 35 20 0 21 -2 10 -14z m135 7 c4 -3 -2 -13 -14 -21 -23
-16 -34 -10 -26 13 7 15 28 20 40 8z m3110 -22 c-3 -12 -11 -17 -19 -14 -19 7
-18 21 4 26 9 3 18 5 19 6 0 0 -1 -8 -4 -18z m307 10 c0 -5 -7 -12 -16 -15
-14 -5 -15 -4 -4 9 14 17 20 19 20 6z m-2210 -11 c0 -5 -4 -10 -10 -10 -5 0
-10 5 -10 10 0 6 5 10 10 10 6 0 10 -4 10 -10z m400 -5 c0 -8 -4 -15 -10 -15
-5 0 -10 7 -10 15 0 8 5 15 10 15 6 0 10 -7 10 -15z m1027 -1 c-3 -3 -12 -4
-19 -1 -8 3 -5 6 6 6 11 1 17 -2 13 -5z m821 -32 c0 -16 -5 -29 -11 -30 -7 -1
-24 -3 -39 -6 -20 -3 -28 0 -28 10 0 9 11 14 30 14 28 0 36 11 31 43 -1 5 2 6
7 3 5 -3 9 -18 10 -34z m-1031 10 c-29 -64 -48 -79 -61 -46 -3 8 -2 12 4 9 6
-4 10 5 10 20 0 22 3 25 21 20 16 -5 19 -4 14 5 -5 9 -4 11 4 6 6 -4 10 -10 8
-14z m-729 -32 c0 -22 -4 -30 -16 -30 -14 0 -15 2 -3 9 12 7 12 13 3 24 -7 7
-9 17 -5 20 13 14 20 6 21 -23z m1500 -4 c5 -23 -14 -44 -28 -30 -12 12 -1 56
14 51 6 -2 13 -12 14 -21z m-1568 -27 c0 -5 -7 -9 -15 -9 -15 0 -20 12 -9 23
8 8 24 -1 24 -14z m610 11 c0 -5 -9 -14 -19 -20 -25 -13 -31 -13 -31 0 0 6 7
10 15 10 8 0 15 5 15 10 0 6 5 10 10 10 6 0 10 -4 10 -10z m-500 -8 c0 -18
-28 -45 -39 -38 -9 6 -8 13 5 27 18 20 34 25 34 11z m891 -15 c-10 -9 -11 -8
-5 6 3 10 9 15 12 12 3 -3 0 -11 -7 -18z m742 3 c20 -24 23 -37 4 -21 -8 6
-17 8 -21 4 -9 -9 -27 18 -20 29 8 13 18 9 37 -12z m-1703 -18 c0 -5 12 -14
27 -21 18 -8 23 -15 16 -22 -8 -8 -22 -6 -47 6 -36 17 -42 26 -29 38 9 10 33
9 33 -1z m920 -8 c0 -8 -5 -12 -10 -9 -6 4 -8 11 -5 16 9 14 15 11 15 -7z
m868 -27 c3 -30 0 -36 -12 -31 -12 5 -13 11 -6 24 7 13 7 21 0 25 -14 9 -12
27 3 23 6 -3 13 -21 15 -41z m-1658 25 c0 -14 -51 -62 -65 -62 -22 0 -18 11
13 41 26 26 52 37 52 21z m1560 -6 c0 -3 -4 -8 -10 -11 -5 -3 -10 -1 -10 4 0
6 5 11 10 11 6 0 10 -2 10 -4z m40 -26 c0 -5 -2 -10 -4 -10 -3 0 -8 5 -11 10
-3 6 -1 10 4 10 6 0 11 -4 11 -10z m-3340 -4 c0 -2 -7 -7 -16 -10 -8 -3 -12
-2 -9 4 6 10 25 14 25 6z m1517 -12 c3 -10 13 -14 25 -11 14 4 18 2 14 -10 -3
-8 -6 -19 -6 -24 0 -12 -37 -12 -45 1 -3 6 -1 10 6 10 8 0 6 6 -4 18 -19 21
-22 32 -7 32 6 0 13 -7 17 -16z m1143 -36 c0 -13 -23 -5 -28 10 -2 7 2 10 12
6 9 -3 16 -11 16 -16z m-1547 -14 c-4 -10 -9 -12 -15 -6 -12 12 -1 35 12 27 5
-3 6 -13 3 -21z m577 6 c0 -5 -4 -10 -10 -10 -5 0 -10 5 -10 10 0 6 5 10 10
10 6 0 10 -4 10 -10z m290 -10 c0 -5 -7 -10 -16 -10 -8 0 -12 5 -9 10 3 6 10
10 16 10 5 0 9 -4 9 -10z m-520 -31 c0 -10 -7 -19 -15 -19 -9 0 -12 -6 -9 -15
4 -9 0 -15 -9 -15 -10 0 -15 8 -14 20 1 11 8 20 15 20 9 0 13 7 9 19 -3 14 -1
18 9 14 8 -3 14 -14 14 -24z m465 1 c18 -8 17 -9 -7 -9 -16 -1 -28 4 -28 9 0
12 8 12 35 0z m-1872 -15 c4 -8 2 -17 -3 -20 -6 -4 -10 -1 -10 4 0 6 -4 11
-10 11 -20 0 -9 -21 15 -30 22 -8 24 -13 15 -30 -10 -19 -9 -20 16 -14 l27 7
-19 -26 c-10 -14 -21 -23 -23 -21 -2 2 -11 -1 -21 -6 -23 -12 -34 0 -14 15 15
11 15 14 1 41 -11 20 -16 24 -17 12 0 -10 -7 -18 -15 -18 -17 0 -20 16 -5 25
6 4 8 10 5 15 -7 11 25 48 41 49 7 1 14 -6 17 -14z m1527 0 c-7 -9 -15 -13
-17 -11 -7 7 7 26 19 26 6 0 6 -6 -2 -15z m964 -20 c-4 -8 -10 -15 -15 -15 -4
0 -6 7 -3 15 4 8 10 15 15 15 4 0 6 -7 3 -15z m-76 -47 c2 -5 10 -4 17 2 10 9
18 7 33 -8 17 -17 18 -24 8 -56 -8 -27 -16 -36 -33 -36 -25 0 -54 35 -46 56 8
21 -13 17 -23 -5 -7 -15 -14 -17 -31 -10 -29 11 -29 20 2 53 19 21 31 26 48
20 12 -4 24 -11 25 -16z m132 12 c0 -5 -4 -10 -10 -10 -5 0 -10 5 -10 10 0 6
5 10 10 10 6 0 10 -4 10 -10z m-380 -20 c9 -16 7 -24 -5 -36 -17 -18 -19 -33
-5 -54 10 -16 12 -15 28 23 20 45 78 31 66 -16 -8 -33 -17 -34 -44 -5 l-21 23
7 -43 c6 -38 5 -42 -14 -42 -28 0 -52 10 -52 22 0 5 -7 16 -15 24 -12 12 -12
19 -2 34 6 11 18 20 26 20 11 0 11 3 1 15 -12 15 -5 55 10 55 5 0 14 -9 20
-20z m-55 -17 c1 -16 -9 -37 -22 -50 -13 -12 -23 -26 -23 -31 0 -5 -10 -13
-22 -16 -21 -7 -21 -8 12 -21 33 -13 29 -14 -74 -14 -96 -1 -107 1 -96 14 11
13 10 14 -4 9 -24 -9 -20 9 8 35 19 18 31 21 55 16 18 -4 31 -3 31 3 0 5 11
13 24 16 18 4 23 11 19 26 -3 11 -1 20 5 20 6 0 19 3 29 6 15 6 16 4 6 -6 -9
-10 -10 -17 -2 -27 18 -21 41 -16 34 7 -6 20 0 40 13 40 4 0 7 -12 7 -27z
m105 17 c0 -5 -5 -10 -11 -10 -5 0 -7 5 -4 10 3 6 8 10 11 10 2 0 4 -4 4 -10z
m100 0 c0 -5 -4 -10 -10 -10 -5 0 -10 5 -10 10 0 6 5 10 10 10 6 0 10 -4 10
-10z m-30 -30 c0 -5 -2 -10 -4 -10 -3 0 -8 5 -11 10 -3 6 -1 10 4 10 6 0 11
-4 11 -10z m315 -10 c3 -5 1 -10 -4 -10 -6 0 -11 5 -11 10 0 6 2 10 4 10 3 0
8 -4 11 -10z m-1678 -37 c2 -6 -8 -10 -22 -10 -14 0 -25 5 -25 13 0 16 42 13
47 -3z m54 -6 c-13 -13 -26 -3 -16 12 3 6 11 8 17 5 6 -4 6 -10 -1 -17z m-994
-7 c3 -11 9 -20 14 -20 5 0 9 -6 9 -14 0 -8 6 -17 13 -19 6 -3 -28 -5 -78 -5
-49 0 -81 3 -70 6 33 11 75 43 75 58 0 22 31 16 37 -6z m2349 -7 c-10 -10 -19
5 -10 18 6 11 8 11 12 0 2 -7 1 -15 -2 -18z m214 17 c0 -5 -5 -10 -11 -10 -5
0 -7 5 -4 10 3 6 8 10 11 10 2 0 4 -4 4 -10z m-1843 -20 c12 0 13 -3 4 -13 -6
-8 -8 -17 -4 -21 4 -4 0 -4 -10 0 -10 3 -17 1 -17 -5 0 -6 -9 -11 -20 -11 -13
0 -18 5 -15 15 3 8 7 22 10 31 3 10 11 14 21 10 9 -3 23 -6 31 -6z m178 -1
c10 -15 -1 -22 -24 -14 -12 3 -19 11 -16 16 8 12 32 11 40 -2z m-285 -35 c0
-8 -4 -12 -10 -9 -5 3 -10 13 -10 21 0 8 5 12 10 9 6 -3 10 -13 10 -21z m1688
14 c-5 -16 -58 -24 -58 -9 0 8 13 13 53 20 5 0 7 -5 5 -11z m-1338 -8 c0 -5
-2 -10 -4 -10 -3 0 -8 5 -11 10 -3 6 -1 10 4 10 6 0 11 -4 11 -10z m80 -11 c0
-12 -37 -12 -45 1 -3 6 1 7 9 4 9 -3 16 -1 16 6 0 6 5 8 10 5 6 -3 10 -10 10
-16z m-170 1 c0 -5 -5 -10 -11 -10 -5 0 -7 5 -4 10 3 6 8 10 11 10 2 0 4 -4 4
-10z m1000 0 c0 -5 -4 -10 -10 -10 -5 0 -10 5 -10 10 0 6 5 10 10 10 6 0 10
-4 10 -10z m490 0 c21 -7 18 -8 -18 -9 -26 -1 -41 3 -37 9 7 11 19 11 55 0z"/>
<path d="M967 2903 c-12 -12 -7 -22 8 -17 8 4 15 10 15 15 0 11 -14 12 -23 2z"/>
<path d="M1020 2815 c0 -8 -4 -15 -10 -15 -5 0 -10 -4 -10 -10 0 -11 32 -1 42
14 12 17 9 26 -7 26 -8 0 -15 -7 -15 -15z"/>
<path d="M1010 2740 c0 -5 5 -10 11 -10 5 0 7 5 4 10 -3 6 -8 10 -11 10 -2 0
-4 -4 -4 -10z"/>
<path d="M312 2524 c-25 -24 -42 -50 -40 -59 2 -14 12 -10 50 19 26 20 54 36
62 36 10 0 16 9 16 23 0 37 -39 29 -88 -19z"/>
<path d="M443 2045 c-13 -22 9 -65 33 -65 18 0 18 37 0 47 -7 4 -15 15 -18 23
-4 12 -7 11 -15 -5z"/>
<path d="M208 1834 c-3 -3 -3 -14 -1 -25 5 -16 8 -18 14 -7 16 25 6 51 -13 32z"/>
<path d="M3594 3059 c-3 -6 -17 -14 -31 -20 -13 -5 -21 -13 -18 -19 10 -17 32
-11 38 9 2 11 15 21 28 23 20 3 21 4 7 10 -10 4 -20 3 -24 -3z"/>
<path d="M3500 2986 c0 -8 5 -18 10 -21 6 -3 10 3 10 14 0 12 -4 21 -10 21 -5
0 -10 -6 -10 -14z"/>
<path d="M3269 2954 c-12 -15 -11 -16 11 -9 35 10 49 25 23 25 -11 0 -27 -7
-34 -16z"/>
<path d="M3310 2880 c0 -5 5 -10 10 -10 6 0 10 5 10 10 0 6 -4 10 -10 10 -5 0
-10 -4 -10 -10z"/>
<path d="M2931 2749 c-13 -5 -21 -12 -18 -15 3 -3 18 1 34 10 31 17 21 20 -16
5z"/>
<path d="M2889 2704 c-18 -22 -5 -26 27 -9 16 8 27 15 24 16 -3 0 -13 2 -22 4
-9 2 -22 -3 -29 -11z"/>
<path d="M1671 2429 c-13 -5 -22 -11 -20 -14 8 -7 49 7 49 16 0 5 -1 9 -2 8
-2 0 -14 -5 -27 -10z"/>
<path d="M2837 2386 c-6 -15 1 -26 15 -26 4 0 8 9 8 20 0 23 -15 27 -23 6z"/>
<path d="M1830 2350 c0 -5 5 -10 10 -10 6 0 10 5 10 10 0 6 -4 10 -10 10 -5 0
-10 -4 -10 -10z"/>
<path d="M2047 2324 c-4 -4 -7 -15 -7 -25 0 -27 -21 -35 -37 -13 -13 17 -15
17 -42 1 -33 -19 -67 -22 -76 -6 -8 12 -34 -18 -35 -40 0 -10 3 -11 14 -2 10
8 16 9 21 1 9 -14 -4 -52 -16 -45 -5 4 -9 2 -9 -3 0 -12 26 -23 65 -28 43 -4
65 5 65 27 0 10 5 19 10 19 16 0 24 -30 11 -43 -6 -6 -11 -21 -11 -34 0 -20
-5 -23 -35 -23 -32 0 -40 7 -36 33 0 4 -8 7 -19 7 -11 0 -20 -7 -20 -16 0 -8
4 -13 9 -10 10 6 33 -17 30 -30 -1 -5 -1 -28 0 -51 1 -31 5 -43 16 -43 19 0
33 32 17 38 -17 5 -2 32 19 32 11 0 24 -11 31 -25 7 -16 15 -22 22 -16 6 5 37
15 69 22 33 7 53 16 46 20 -7 4 -9 14 -6 23 4 9 3 16 -2 16 -10 0 -8 31 3 48
10 17 1 26 -19 18 -11 -4 -14 -13 -10 -25 7 -24 -11 -37 -28 -19 -8 8 -14 40
-14 83 -1 71 -13 122 -26 109z"/>
<path d="M2180 2314 c0 -8 5 -12 10 -9 6 3 10 10 10 16 0 5 -4 9 -10 9 -5 0
-10 -7 -10 -16z"/>
<path d="M1865 2310 c-3 -5 -1 -10 4 -10 6 0 11 5 11 10 0 6 -2 10 -4 10 -3 0
-8 -4 -11 -10z"/>
<path d="M2180 2280 c0 -5 5 -10 11 -10 5 0 7 5 4 10 -3 6 -8 10 -11 10 -2 0
-4 -4 -4 -10z"/>
<path d="M2155 2230 c3 -5 8 -10 11 -10 2 0 4 5 4 10 0 6 -5 10 -11 10 -5 0
-7 -4 -4 -10z"/>
<path d="M2235 2100 c-3 -5 1 -10 10 -10 9 0 13 5 10 10 -3 6 -8 10 -10 10 -2
0 -7 -4 -10 -10z"/>
<path d="M2456 1981 c-4 -6 -18 -11 -31 -11 -17 0 -23 -4 -19 -14 3 -8 -2 -26
-11 -40 -17 -25 -17 -26 4 -26 11 0 21 4 21 9 0 5 9 7 21 4 12 -3 25 0 29 7
10 17 60 4 60 -15 0 -8 -8 -15 -17 -16 -12 0 -13 -2 -5 -6 19 -7 62 5 62 19 0
6 8 17 18 25 12 10 14 16 5 19 -18 8 -16 34 2 34 8 0 15 -8 15 -19 0 -18 45
-36 77 -32 8 1 10 -5 7 -14 -4 -9 -19 -15 -41 -15 -26 0 -41 -7 -55 -26 -11
-14 -26 -23 -32 -21 -12 5 -54 -20 -45 -26 18 -13 96 -24 106 -15 7 6 21 7 30
3 10 -5 21 -7 26 -7 4 1 7 -5 7 -13 0 -8 5 -15 10 -15 6 0 21 -9 32 -20 21
-19 31 -19 76 -3 6 3 12 -2 12 -11 0 -8 9 -20 19 -25 15 -8 22 -6 34 12 12 17
16 18 16 6 1 -25 -32 -55 -56 -51 -13 2 -23 -1 -23 -6 0 -5 6 -9 13 -10 6 0
29 -4 50 -8 20 -3 37 -3 37 2 0 5 7 18 15 28 14 19 15 19 35 1 11 -10 20 -26
20 -37 0 -10 5 -18 10 -18 6 0 10 18 10 40 0 22 -4 40 -10 40 -5 0 -10 4 -10
10 0 12 -32 50 -42 50 -5 0 -6 -12 -3 -27 l6 -28 -15 25 c-8 14 -15 44 -16 68
0 24 -5 42 -11 42 -7 0 -20 9 -30 21 -12 14 -24 19 -38 14 -22 -7 -28 -29 -11
-40 15 -9 12 -25 -5 -25 -9 0 -12 -6 -8 -17 4 -10 2 -14 -4 -10 -6 4 -13 1
-16 -5 -2 -7 -8 -10 -12 -6 -4 4 0 15 10 24 11 12 14 25 10 43 -7 30 -43 71
-61 71 -7 0 -14 5 -16 11 -2 6 -16 12 -31 12 -15 0 -25 2 -22 5 2 3 -5 12 -17
21 -28 19 -182 29 -192 12z m64 -20 c0 -5 -9 -11 -19 -14 -14 -3 -18 -1 -14 9
6 15 33 19 33 5z m230 -156 c0 -8 -4 -15 -9 -15 -13 0 -22 16 -14 24 11 11 23
6 23 -9z m115 -55 c-3 -5 -10 -10 -16 -10 -5 0 -9 5 -9 10 0 6 7 10 16 10 8 0
12 -4 9 -10z"/>
<path d="M3335 1921 c-3 -5 -1 -12 5 -16 5 -3 10 1 10 9 0 18 -6 21 -15 7z"/>
<path d="M2860 1896 c19 -13 37 -22 39 -20 9 9 -33 44 -53 44 -17 0 -14 -4 14
-24z"/>
<path d="M2393 1826 c-25 -12 -32 -29 -9 -20 7 3 22 -6 33 -19 15 -19 25 -23
51 -19 36 5 42 17 11 25 -12 3 -22 0 -26 -9 -7 -19 -33 1 -33 26 0 13 6 17 20
13 11 -3 20 0 20 6 0 14 -37 12 -67 -3z"/>
<path d="M3192 1766 c6 -19 16 -34 22 -33 6 1 10 -4 8 -11 -1 -8 2 -11 7 -8 5
4 17 -1 25 -10 9 -8 16 -12 16 -7 0 4 25 8 55 8 53 -1 82 16 49 29 -24 9 -54
7 -54 -4 0 -15 -26 -12 -40 5 -7 8 -25 15 -41 15 -22 0 -27 4 -22 16 3 9 0 20
-8 25 -24 15 -27 10 -17 -25z"/>
<path d="M3332 1771 c-11 -6 -10 -10 4 -15 20 -8 32 0 18 14 -5 5 -15 5 -22 1z"/>
<path d="M2575 1740 c-3 -6 1 -7 9 -4 18 7 21 14 7 14 -6 0 -13 -4 -16 -10z"/>
<path d="M2230 1709 c0 -5 5 -7 10 -4 6 3 10 8 10 11 0 2 -4 4 -10 4 -5 0 -10
-5 -10 -11z"/>
<path d="M2110 1679 c0 -5 5 -7 10 -4 6 3 10 8 10 11 0 2 -4 4 -10 4 -5 0 -10
-5 -10 -11z"/>
<path d="M2550 1670 c0 -5 5 -10 11 -10 5 0 7 5 4 10 -3 6 -8 10 -11 10 -2 0
-4 -4 -4 -10z"/>
<path d="M3080 1653 c0 -5 9 -18 20 -28 11 -10 20 -14 20 -8 0 5 -9 18 -20 28
-11 10 -20 14 -20 8z"/>
<path d="M1617 1630 c-4 -15 0 -20 14 -20 22 0 25 13 5 29 -11 9 -15 7 -19 -9z"/>
<path d="M2538 1642 c-28 -3 -36 -16 -19 -27 5 -3 12 -1 16 5 10 17 25 11 25
-10 0 -11 4 -20 9 -20 10 0 12 49 2 53 -3 2 -18 1 -33 -1z"/>
<path d="M2322 1584 c1 -9 9 -19 16 -22 9 -3 13 2 10 14 -1 9 -9 19 -16 22 -9
3 -13 -2 -10 -14z"/>
<path d="M1767 1561 c-18 -31 -14 -38 11 -22 8 4 12 18 10 30 -3 21 -4 21 -21
-8z"/>
<path d="M2427 1552 c2 -11 0 -23 -6 -26 -22 -14 -12 -33 14 -28 36 6 39 17
11 47 -20 22 -24 23 -19 7z"/>
<path d="M2280 1490 c-11 -7 -6 -10 20 -10 19 0 42 5 50 10 11 7 6 10 -20 10
-19 0 -42 -5 -50 -10z"/>
<path d="M2440 1464 c-14 -7 -19 -14 -12 -14 6 0 12 -7 12 -15 0 -10 10 -15
27 -15 24 0 25 1 11 18 -9 9 -13 23 -11 30 5 14 5 14 -27 -4z"/>
<path d="M1689 1343 c-4 -18 -4 -93 -1 -93 2 0 18 10 35 22 53 36 73 68 41 68
-8 0 -12 -4 -9 -10 9 -15 -4 -12 -21 5 -16 16 -43 20 -45 8z"/>
<path d="M1634 1295 c-4 -8 -13 -15 -22 -15 -13 0 -13 -3 -4 -12 10 -10 15
-10 23 2 8 11 12 12 16 3 2 -7 10 -13 16 -13 8 0 8 3 0 11 -6 6 -9 18 -6 25 3
8 0 14 -6 14 -7 0 -14 -7 -17 -15z"/>
<path d="M1735 1259 c-10 -15 3 -25 16 -12 7 7 7 13 1 17 -6 3 -14 1 -17 -5z"/>
<path d="M1575 1219 c-10 -15 3 -25 16 -12 7 7 7 13 1 17 -6 3 -14 1 -17 -5z"/>
<path d="M1610 1170 c0 -5 5 -10 10 -10 6 0 10 5 10 10 0 6 -4 10 -10 10 -5 0
-10 -4 -10 -10z"/>
<path d="M1648 1058 c9 -9 15 -9 24 0 9 9 7 12 -12 12 -19 0 -21 -3 -12 -12z"/>
<path d="M1730 1029 c0 -6 7 -8 16 -5 8 3 12 2 9 -3 -3 -5 -1 -12 4 -15 5 -4
13 -1 17 5 7 12 -12 29 -33 29 -7 0 -13 -5 -13 -11z"/>
<path d="M1084 1017 c-4 -7 -4 -9 1 -5 4 4 14 1 22 -7 17 -18 36 -20 31 -3 -6
18 -46 29 -54 15z"/>
<path d="M1438 1013 c-10 -2 -18 -9 -18 -14 0 -12 17 -11 26 2 3 6 17 8 31 4
16 -4 22 -2 18 5 -6 10 -26 11 -57 3z"/>
<path d="M1396 963 c-6 -14 -5 -15 5 -6 7 7 10 15 7 18 -3 3 -9 -2 -12 -12z"/>
<path d="M1502 949 c5 -33 34 -47 54 -27 24 24 11 48 -26 48 -26 0 -31 -3 -28
-21z"/>
<path d="M962 943 c3 -5 11 -22 18 -39 18 -41 90 -69 90 -34 0 4 -10 6 -22 2
-17 -4 -20 -2 -15 11 9 24 -2 47 -23 47 -11 0 -22 5 -25 10 -7 11 -29 14 -23
3z"/>
<path d="M1427 943 c-12 -12 -7 -19 13 -19 11 0 20 6 20 13 0 14 -22 18 -33 6z"/>
<path d="M981 817 c-13 -13 -15 -47 -2 -47 5 0 16 11 24 24 13 20 14 25 3 29
-8 3 -19 0 -25 -6z"/>
<path d="M1570 730 c0 -5 5 -10 11 -10 5 0 7 5 4 10 -3 6 -8 10 -11 10 -2 0
-4 -4 -4 -10z"/>
<path d="M2385 677 c-3 -9 -7 -24 -10 -32 -3 -11 3 -15 21 -15 22 0 24 3 19
23 -10 32 -23 43 -30 24z"/>
<path d="M2221 651 c-7 -5 -11 -18 -9 -29 3 -20 4 -21 26 -3 19 14 21 19 10
29 -8 6 -19 7 -27 3z"/>
<path d="M827 623 c-4 -3 -7 -17 -7 -30 0 -20 5 -23 35 -23 30 0 35 3 35 24 0
29 -43 49 -63 29z"/>
<path d="M1542 545 c-14 -31 -15 -45 -3 -45 9 0 22 27 27 58 4 22 -12 13 -24
-13z"/>
<path d="M2110 535 c-7 -8 -16 -13 -20 -10 -11 7 -21 -22 -14 -40 9 -23 33
-18 46 10 13 29 30 32 52 10 20 -20 62 -10 69 16 3 10 1 19 -4 19 -5 0 -9 -4
-9 -10 0 -16 -50 -12 -56 5 -8 19 -48 19 -64 0z"/>
<path d="M705 510 c3 -5 10 -10 16 -10 5 0 9 5 9 10 0 6 -7 10 -16 10 -8 0
-12 -4 -9 -10z"/>
<path d="M2120 471 c0 -16 26 -19 45 -5 17 13 17 14 -13 14 -18 0 -32 -4 -32
-9z"/>
<path d="M2250 465 c14 -16 13 -17 -8 -11 -25 8 -31 -9 -5 -18 17 -7 35 11 30
28 -2 6 -10 12 -18 15 -12 4 -12 1 1 -14z"/>
<path d="M718 463 c-10 -2 -18 -9 -18 -15 0 -5 7 -7 16 -4 9 3 20 6 25 6 5 0
9 5 9 10 0 10 -3 11 -32 3z"/>
<path d="M926 445 c-3 -9 0 -15 9 -15 8 0 15 7 15 15 0 8 -4 15 -9 15 -5 0
-11 -7 -15 -15z"/>
<path d="M1850 450 c0 -5 5 -10 11 -10 5 0 7 5 4 10 -3 6 -8 10 -11 10 -2 0
-4 -4 -4 -10z"/>
<path d="M2086 428 c-23 -25 -23 -78 -1 -112 14 -22 14 -24 -2 -30 -15 -6 -15
-8 -3 -16 8 -6 23 -10 34 -10 15 0 17 6 14 30 -3 17 -1 30 4 30 4 0 8 7 8 15
0 9 -6 12 -15 9 -19 -8 -19 3 0 22 9 9 23 13 34 9 16 -5 18 -2 14 14 -8 30
-32 48 -43 32 -5 -9 -10 -10 -14 -2 -4 6 -2 11 4 11 6 0 8 5 5 10 -9 14 -17
11 -39 -12z"/>
<path d="M1889 438 c-9 -30 -6 -38 13 -32 16 5 19 3 12 -7 -6 -12 -5 -11 9 0
13 10 15 17 6 27 -10 12 -37 20 -40 12z"/>
<path d="M2186 431 c-4 -5 -2 -12 3 -15 5 -4 12 -2 15 3 4 5 2 12 -3 15 -5 4
-12 2 -15 -3z"/>
<path d="M1442 413 c-7 -12 -7 -25 -1 -34 7 -12 9 -11 9 3 0 9 6 18 13 21 9 3
9 7 0 17 -9 9 -13 8 -21 -7z"/>
<path d="M1550 400 c0 -5 5 -10 11 -10 5 0 7 5 4 10 -3 6 -8 10 -11 10 -2 0
-4 -4 -4 -10z"/>
<path d="M1977 383 c-4 -3 -7 -11 -7 -17 0 -6 5 -5 12 2 6 6 9 14 7 17 -3 3
-9 2 -12 -2z"/>
<path d="M2190 369 c0 -5 5 -7 10 -4 6 3 10 8 10 11 0 2 -4 4 -10 4 -5 0 -10
-5 -10 -11z"/>
<path d="M882 323 c2 -20 9 -29 26 -31 12 -2 22 1 22 7 0 6 9 11 20 11 11 0
20 4 20 10 0 5 -7 7 -15 4 -8 -3 -22 1 -30 10 -26 26 -47 20 -43 -11z"/>
<path d="M1505 340 c-4 -6 1 -17 11 -25 14 -10 21 -10 26 -2 5 8 12 7 25 -5
22 -18 53 -19 70 -2 11 10 9 14 -6 19 -10 3 -26 2 -36 -1 -9 -4 -20 -2 -24 4
-10 16 -58 25 -66 12z"/>
<path d="M2240 310 c0 -5 5 -10 10 -10 6 0 10 5 10 10 0 6 -4 10 -10 10 -5 0
-10 -4 -10 -10z"/>
<path d="M1052 259 c-11 -18 -11 -24 3 -39 9 -10 14 -24 10 -30 -6 -9 -10 -9
-16 1 -4 7 -10 11 -13 8 -7 -7 23 -49 35 -49 5 0 9 6 9 14 0 8 7 22 16 30 14
14 14 18 0 31 -8 8 -19 15 -25 15 -6 0 -11 5 -11 10 0 6 7 10 16 10 8 0 12 5
9 10 -9 15 -19 12 -33 -11z"/>
<path d="M1460 235 c7 -9 15 -13 17 -11 7 7 -7 26 -19 26 -6 0 -6 -6 2 -15z"/>
<path d="M2058 243 c-10 -2 -18 -13 -18 -24 0 -17 3 -18 21 -8 23 12 39 0 39
-31 0 -10 3 -11 11 -3 8 8 8 19 -2 42 -14 31 -18 33 -51 24z"/>
<path d="M2156 232 c-11 -10 -6 -19 19 -30 24 -11 42 -2 31 17 -7 11 -43 21
-50 13z"/>
<path d="M968 203 c-10 -3 -18 -9 -18 -14 0 -10 7 -11 34 0 23 9 9 19 -16 14z"/>
<path d="M467 193 c-4 -3 -2 -12 4 -19 12 -15 4 -20 -41 -26 l-25 -3 24 -14
c21 -11 25 -11 33 3 14 25 33 19 66 -20 34 -39 52 -38 48 2 -4 39 -56 89 -56
54 0 -5 -7 -10 -15 -10 -8 0 -14 3 -14 8 5 27 -8 41 -24 25z"/>
<path d="M1530 192 c0 -4 7 -17 15 -29 11 -16 24 -21 52 -20 50 3 54 24 6 32
-21 3 -46 10 -55 16 -10 5 -18 6 -18 1z"/>
<path d="M1010 160 c0 -6 7 -10 15 -10 8 0 15 2 15 4 0 2 -7 6 -15 10 -8 3
-15 1 -15 -4z"/>
<path d="M1070 130 c0 -5 4 -10 9 -10 6 0 13 5 16 10 3 6 -1 10 -9 10 -9 0
-16 -4 -16 -10z"/>
<path d="M1045 120 c-4 -7 -17 -9 -31 -6 -25 7 -31 -3 -14 -20 11 -11 70 -7
70 5 0 3 -4 12 -9 20 -6 10 -10 10 -16 1z"/>
<path d="M3785 2720 c3 -5 11 -10 16 -10 6 0 7 5 4 10 -3 6 -11 10 -16 10 -6
0 -7 -4 -4 -10z"/>
<path d="M4578 1893 c7 -3 16 -2 19 1 4 3 -2 6 -13 5 -11 0 -14 -3 -6 -6z"/>
<path d="M4034 1013 c-3 -12 -16 -24 -28 -26 -20 -4 -20 -4 0 -6 30 -2 56 21
44 39 -8 13 -11 11 -16 -7z"/>
<path d="M4225 1030 c-3 -5 1 -10 9 -10 8 0 18 5 21 10 3 6 -1 10 -9 10 -8 0
-18 -4 -21 -10z"/>
<path d="M4286 1031 c-3 -5 1 -14 9 -21 12 -10 15 -10 15 3 0 19 -16 31 -24
18z"/>
<path d="M4370 943 c0 -5 5 -15 10 -23 8 -12 10 -11 10 8 0 12 -4 22 -10 22
-5 0 -10 -3 -10 -7z"/>
<path d="M4315 920 c3 -5 10 -10 16 -10 5 0 9 5 9 10 0 6 -7 10 -16 10 -8 0
-12 -4 -9 -10z"/>
<path d="M4338 749 c-26 -14 -22 -32 5 -23 29 9 33 12 21 24 -5 5 -16 5 -26
-1z"/>
<path d="M4436 745 c4 -8 11 -15 16 -15 6 0 5 6 -2 15 -7 8 -14 15 -16 15 -2
0 -1 -7 2 -15z"/>
<path d="M4300 641 c0 -15 49 -19 67 -5 16 12 13 13 -24 14 -24 0 -43 -4 -43
-9z"/>
<path d="M4335 600 c-3 -5 -1 -10 4 -10 6 0 11 5 11 10 0 6 -2 10 -4 10 -3 0
-8 -4 -11 -10z"/>
<path d="M4405 530 c3 -5 8 -10 11 -10 2 0 4 5 4 10 0 6 -5 10 -11 10 -5 0 -7
-4 -4 -10z"/>
<path d="M3250 720 c0 -5 7 -10 16 -10 8 0 12 5 9 10 -3 6 -10 10 -16 10 -5 0
-9 -4 -9 -10z"/>
<path d="M3284 665 c-23 -18 -74 -20 -74 -2 0 7 -7 4 -15 -7 -19 -25 -2 -38
32 -25 21 8 27 5 24 -13 0 -5 4 -8 9 -8 6 0 10 5 10 10 0 6 9 10 20 10 15 0
20 7 20 25 0 29 0 29 -26 10z"/>
<path d="M3100 641 c0 -6 5 -13 10 -16 6 -3 10 1 10 9 0 9 -4 16 -10 16 -5 0
-10 -4 -10 -9z"/>
<path d="M3390 620 c0 -5 5 -10 10 -10 6 0 10 5 10 10 0 6 -4 10 -10 10 -5 0
-10 -4 -10 -10z"/>
<path d="M3440 591 c0 -12 5 -21 10 -21 6 0 10 6 10 14 0 8 -4 18 -10 21 -5 3
-10 -3 -10 -14z"/>
<path d="M3248 543 c-22 -5 -23 -19 -2 -27 25 -9 34 -7 34 8 0 18 -10 24 -32
19z"/>
<path d="M3207 499 c7 -7 15 -10 18 -7 3 3 -2 9 -12 12 -14 6 -15 5 -6 -5z"/>
<path d="M3517 489 c-10 -11 -16 -23 -14 -26 5 -5 47 33 47 42 0 12 -17 4 -33
-16z"/>
<path d="M3095 450 c4 -6 11 -8 16 -5 14 9 11 15 -7 15 -8 0 -12 -5 -9 -10z"/>
<path d="M3250 430 c0 -5 5 -10 10 -10 6 0 10 5 10 10 0 6 -4 10 -10 10 -5 0
-10 -4 -10 -10z"/>
<path d="M3156 415 c-3 -9 0 -15 9 -15 16 0 20 16 6 24 -5 3 -11 -1 -15 -9z"/>
<path d="M3087 413 c-4 -3 -7 -11 -7 -17 0 -6 5 -5 12 2 6 6 9 14 7 17 -3 3
-9 2 -12 -2z"/>
<path d="M3261 364 c0 -11 3 -14 6 -6 3 7 2 16 -1 19 -3 4 -6 -2 -5 -13z"/>
<path d="M2654 747 c-5 -15 -14 -17 -38 -13 -31 6 -31 5 -31 -34 0 -22 0 -40
1 -40 1 0 17 6 35 14 42 18 63 50 50 74 -9 16 -10 16 -17 -1z"/>
<path d="M2725 750 c-8 -13 15 -24 27 -12 6 6 4 11 -6 15 -8 3 -18 2 -21 -3z"/>
<path d="M3224 99 c-3 -6 2 -17 12 -24 24 -18 34 -19 34 -2 0 18 -37 39 -46
26z"/>
<path d="M3305 60 c3 -5 8 -10 11 -10 2 0 4 5 4 10 0 6 -5 10 -11 10 -5 0 -7
-4 -4 -10z"/>
</g>
</svg>
